<svg width="150px" height="150px" viewBox="0 0 60 60" aria-hidden="true">
	<title>Techniker Krankenkasse logo</title>
	<path fill="#00a0e3" d="M0 0h60.001v60H0z"/>
	<path fill="#fff" d="M26.01 17.685v10.982h-9.146V17.685H10V9.999h22.862v7.686zm11.597-.009h11.826l-11.004 10.99L50.001 39.66H38.187L27.201 28.666zM14.912 43.684l-.124.914h-1.836v5.401h-1.109v-5.401h-1.96l.116-.914z"/>
	<defs>
		<path id="a" d="M0 0h60.001v60H0z"/>
	</defs>
	<clipPath id="b">
		<use href="#a" overflow="visible"/>
	</clipPath>
	<path fill="#fff" d="M22.86 49.92a3.773 3.773 0 0 1-1.162.168c-.403 0-.736-.05-1.003-.155a1.533 1.533 0 0 1-.638-.443 1.726 1.726 0 0 1-.342-.687 3.592 3.592 0 0 1-.102-.888v-.452c0-.325.043-.62.13-.888.084-.265.216-.492.393-.682.178-.19.404-.334.68-.435.274-.1.604-.15.988-.15.23 0 .448.017.652.053.203.035.391.08.563.133l-.177.78a2.9 2.9 0 0 0-.86-.123c-.468 0-.797.1-.985.301-.19.201-.284.544-.284 1.028v.373c0 .509.102.868.306 1.078.203.21.545.315 1.024.315.166 0 .33-.01.493-.031.163-.021.315-.046.457-.075l-.133.78zm1.277.08v-6.511l1.082-.151v2.458c.147-.165.334-.291.559-.378.224-.085.472-.128.745-.128.248 0 .474.032.678.097a1.343 1.343 0 0 1 .874.799c.083.2.125.437.125.709V50h-1.083v-2.811c0-.373-.068-.637-.204-.795-.135-.156-.364-.235-.682-.235-.35 0-.605.091-.768.275-.163.183-.244.476-.244.878V50h-1.082zm5.437 0v-4.542l.93-.132.081.566c.148-.195.338-.343.572-.447.234-.103.501-.155.803-.155.249 0 .475.032.678.097.204.066.38.165.529.298.147.132.263.3.345.501.083.2.125.437.125.709V50h-1.083v-2.811c0-.373-.068-.637-.203-.795-.136-.156-.365-.235-.684-.235-.348 0-.604.091-.767.275-.163.183-.243.476-.243.878V50h-1.083zm6.022-6.449c.231 0 .398.052.501.156.104.103.156.25.156.438 0 .19-.052.336-.156.44-.103.104-.27.155-.5.155-.23 0-.398-.051-.502-.155-.104-.104-.154-.25-.154-.44 0-.189.05-.335.154-.438.104-.104.271-.156.501-.156m-.54 1.925 1.08-.15V50h-1.08v-4.524zm3.586 2.408V50h-1.038v-6.511l1.038-.15v3.747l1.775-1.689h1.223l-2.154 2.053L41.72 50h-1.268zm11.279-1.547a3.986 3.986 0 0 0-.256-.054 1.846 1.846 0 0 0-.311-.027c-.39 0-.673.103-.847.306-.174.204-.262.517-.262.936V50h-1.083v-4.541l.932-.134.08.621c.147-.2.331-.353.55-.456s.481-.156.789-.156a1.654 1.654 0 0 1 .604.098l-.196.905zM16.644 34.639c.23 0 .397.052.501.155.104.104.156.25.156.439 0 .19-.052.335-.156.439-.104.104-.27.156-.501.156s-.398-.052-.501-.156c-.104-.104-.155-.25-.155-.44 0-.188.05-.334.155-.438.103-.103.27-.155.5-.155m-.54 1.924 1.083-.15v4.674h-1.083v-4.524zm-5.95-1.791 1.985.001c.532 0 .973.07 1.322.211.348.142.627.338.833.59.208.252.352.55.435.897.083.345.125.722.125 1.13v.647c0 .42-.045.803-.134 1.149a2.263 2.263 0 0 1-.443.896 2.011 2.011 0 0 1-.838.585c-.352.14-.788.209-1.309.209h-2.128V34.93c0-.088.085-.158.152-.158m.956 5.392h.931c.278 0 .522-.032.732-.097a1.17 1.17 0 0 0 .524-.324c.138-.15.244-.354.315-.607.071-.254.106-.572.106-.95v-.523a3.8 3.8 0 0 0-.101-.95 1.413 1.413 0 0 0-.312-.607 1.136 1.136 0 0 0-.518-.32 2.597 2.597 0 0 0-.736-.092h-.94v4.47zm10.813-3.317c-.332-.314-.802-.47-1.41-.47-.368 0-.682.053-.945.16-.263.106-.48.257-.652.452a1.805 1.805 0 0 0-.377.701c-.08.272-.12.573-.12.904v.373c0 .366.036.687.11.963.074.275.2.506.373.696.174.189.403.331.683.426.281.094.628.142 1.043.142a6.312 6.312 0 0 0 .798-.054c.13-.018.25-.039.359-.062.11-.024.206-.05.289-.08l.142-.772a7.08 7.08 0 0 1-.657.098 5.914 5.914 0 0 1-.577.027c-.438 0-.765-.05-.985-.15-.218-.102-.366-.282-.443-.542l2.785-1.233a.126.126 0 0 0 .08-.125v-.123c0-.574-.165-1.017-.496-1.33m-2.213.642c.156-.21.414-.315.776-.315.301 0 .524.07.664.21.135.13.219.319.252.565l-1.927.858v-.284c0-.48.078-.824.235-1.034m-1.572 8.27c-.333-.314-.803-.47-1.412-.47-.366 0-.681.052-.944.16-.263.106-.48.257-.652.452a1.805 1.805 0 0 0-.376.701c-.08.272-.12.573-.12.904v.373c0 .366.036.687.11.962.074.276.198.508.373.697.174.189.402.33.682.426.282.094.629.142 1.043.142a6.305 6.305 0 0 0 .798-.053c.13-.019.25-.04.36-.063.11-.024.205-.051.288-.08l.142-.771a7.83 7.83 0 0 1-.657.098 6.33 6.33 0 0 1-.576.025c-.437 0-.766-.05-.984-.15-.22-.101-.367-.282-.445-.54l2.786-1.234a.126.126 0 0 0 .08-.125v-.123c0-.574-.166-1.018-.496-1.331m-2.214.643c.157-.21.415-.315.777-.315.3 0 .523.07.665.209.133.13.217.32.25.565l-1.927.858v-.284c0-.479.078-.823.235-1.033m29.653-.643c-.332-.314-.803-.47-1.411-.47-.367 0-.682.052-.945.16a1.69 1.69 0 0 0-.651.452 1.805 1.805 0 0 0-.377.701c-.08.272-.121.573-.121.904v.373c0 .366.037.687.111.962.074.276.199.508.373.697.174.189.402.33.683.426.281.094.628.142 1.043.142a6.305 6.305 0 0 0 .797-.053c.13-.019.25-.04.36-.063s.206-.051.289-.08l.142-.771a7.83 7.83 0 0 1-.657.098 6.33 6.33 0 0 1-.577.025c-.438 0-.765-.05-.984-.15-.22-.101-.368-.282-.444-.54l2.785-1.234a.126.126 0 0 0 .08-.125v-.123c0-.574-.165-1.018-.496-1.331m-2.214.643c.157-.21.415-.315.777-.315.301 0 .523.07.664.209.135.13.219.32.252.565l-1.927.858v-.284c0-.479.078-.823.234-1.033" clip-path="url(#b)"/>
</svg>
