<svg width="150px" height="73px" viewBox="-1.217 -1.217 87.184 42.996">
	<title>AOK logo</title>
	<path fill="#396" d="M45.406 0c-8.56 0-15.5 7.056-15.5 15.782 0 8.721 6.94 15.781 15.5 15.781 8.58 0 15.531-7.06 15.532-15.78 0-8.727-6.952-15.782-15.532-15.782zm32.75.688L65.719 12.532V.751h-3.406v30.125h3.437V16.532l12.813 14.313h4.718L68.594 14.438l.094-.093L82.875.688h-4.719zM25.031.751 1.906 30.845h4.282l5.78-7.5h13.063v7.53h3.407V.751h-3.407zm20.375 2.687c6.698 0 12.156 5.53 12.157 12.344 0 6.809-5.46 12.313-12.157 12.313-6.68 0-12.093-5.504-12.093-12.313 0-6.814 5.413-12.344 12.093-12.344zm.063 1.782-2.5 2.718a3.435 3.435 0 0 0-.875 2.282c0 1.735 1.277 3.15 2.906 3.375v4.718l-2.531-1.468c.736-1.592.167-3.517-1.375-4.407a3.278 3.278 0 0 0-2.344-.375l-3.594.875 1.094 3.563c.25.751.779 1.431 1.531 1.875 1.444.844 3.233.445 4.25-.844L45 19.282v4.063h-7.594l.719.812h14.594l.687-.812h-7.562v-4.063l2.969-1.75c1.012 1.294 2.832 1.69 4.28.844a3.509 3.509 0 0 0 1.532-1.875l1.094-3.563-3.594-.875a3.26 3.26 0 0 0-2.344.375c-1.54.888-2.098 2.787-1.375 4.375l-2.562 1.5v-4.687c1.682-.195 3-1.648 3-3.406 0-.87-.343-1.68-.875-2.282l-2.5-2.718zM25.031 6.345v13.843H14.406L25.031 6.345zm20.438.156L47.25 8.47c.146.157.303.338.406.53.192.366.313.783.313 1.22 0 1.4-1.109 2.53-2.5 2.53-1.374 0-2.5-1.13-2.5-2.53 0-.437.124-.854.312-1.22.104-.192.234-.373.407-.53l1.78-1.97zm-6 6.344c.42.007.826.117 1.219.343 1.19.688 1.607 2.257.937 3.47-.688 1.215-2.244 1.647-3.437.968a2.504 2.504 0 0 1-.875-.875 2.566 2.566 0 0 1-.282-.625l-.75-2.563 2.563-.625c.205-.05.409-.096.625-.093zm11.906 0c.23-.003.448.043.656.093l2.563.625-.75 2.563c-.06.219-.168.439-.281.625-.223.345-.505.66-.875.875-1.202.679-2.75.247-3.438-.969-.665-1.212-.257-2.781.938-3.469a2.42 2.42 0 0 1 1.187-.343zM16.656 33.907C14.813 33.9 14 35.533 14 37.251c0 2.216 1.181 3.312 2.5 3.312.998 0 1.4-.582 1.688-.968l.125.812h.75V36.97h-2.282v1.062h1.282c-.237 1.283-1.063 1.406-1.313 1.406-.776 0-1.594-.468-1.594-2.187 0-1.618.747-2.25 1.563-2.25.802 0 1.187.786 1.187 1.031h1.157c-.063-.862-.73-2.125-2.407-2.125zM0 34.063v6.344h2.344c1.785 0 2.25-1.946 2.25-3.312 0-1.205-.394-3.032-2.219-3.032H0zm41.156 0v2.25h-.031c-.164-.316-.464-.75-1.156-.75-.894 0-1.688.82-1.688 2.438 0 1.304.524 2.531 1.719 2.531.436 0 .904-.184 1.156-.719h.032v.594h1.03v-6.344h-1.062zm2.125 0v6.344h1.063v-2.719c0-.717.381-1.062.844-1.062.688 0 .687.565.687.906v2.875h1.063v-3.25c0-1.034-.595-1.594-1.375-1.594-.59 0-1.078.345-1.22.75v-2.25h-1.062zm18.344 0v6.344h1.063v-1.5l.437-.531.969 2.031h1.281l-1.469-2.875 1.438-1.844h-1.313l-1.343 1.813v-3.438h-1.063zm-56.156.032v1.156h1.062v-1.156H5.469zm46.937 0v1.156h1.063v-1.156h-1.063zm2.344.343v1.25h-.562v.907h.562v2.843c0 .605.171 1 1.094 1h.125c.162 0 .325.01.5 0v-.968c-.083.01-.144.03-.219.03-.422 0-.438-.098-.437-.374v-2.531h.656v-.907h-.656v-1.25H54.75zm-53.656.72h1.094c.485 0 1.25.165 1.25 2.03 0 1.043-.297 2.125-1.22 2.125H1.094v-4.156zm8.125.405c-1.75 0-1.906 1.818-1.906 2.375 0 1.928.87 2.594 2 2.594.683 0 1.472-.364 1.75-1.5H9.969c-.085.341-.363.5-.656.5-.852 0-.907-.81-.938-1.156h2.719v-.219c0-2.16-1.085-2.594-1.875-2.594zm12.625 0c-1.77 0-1.938 1.818-1.938 2.375 0 1.928.858 2.594 2 2.594.692 0 1.499-.364 1.782-1.5h-1.094c-.085.341-.392.5-.688.5-.86 0-.907-.81-.937-1.156h2.781v-.219c0-2.16-1.106-2.594-1.906-2.594zm4.344 0c-1.265 0-1.625.908-1.625 1.594 0 1.748 2.5 1.164 2.5 1.938 0 .18-.137.5-.688.5-.671 0-.875-.28-.875-.688h-1.094c.032 1.26 1.012 1.625 1.938 1.625.64 0 1.781-.247 1.781-1.625 0-1.72-2.531-1.197-2.531-1.937 0-.208.074-.438.656-.438.582 0 .673.285.719.594H28c-.084-1.335-1.017-1.563-1.812-1.563zm9.843 0c-.778 0-1.074.525-1.218.813h-.032v-.688H33.75v4.72h1.094v-2.72c0-.717.36-1.062.844-1.062.667 0 .687.565.687.906v2.875h1.063v-3.25c0-1.034-.608-1.594-1.407-1.594zm13.657 0c-1.778 0-1.97 1.818-1.97 2.375 0 1.928.893 2.594 2.032 2.594.685 0 1.485-.364 1.781-1.5h-1.093c-.093.341-.398.5-.688.5-.865 0-.909-.81-.937-1.156h2.75v-.219c0-2.16-1.08-2.594-1.875-2.594zm9.156 0c-1.255 0-1.656.908-1.656 1.594 0 1.748 2.53 1.164 2.53 1.938 0 .18-.127.5-.687.5-.671 0-.906-.28-.906-.688h-1.094c.03 1.26 1.04 1.625 1.969 1.625.646 0 1.781-.247 1.781-1.625 0-1.72-2.53-1.197-2.531-1.937 0-.208.075-.438.656-.438.592 0 .673.285.719.594h1.031c-.081-1.335-1.007-1.563-1.812-1.563zm9.062 0c-.825 0-1.691.212-1.812 1.657h1.031c.031-.285.123-.657.656-.657.268 0 .688.014.688.532 0 .27-.201.347-.375.375l-.938.187c-.672.109-1.187.589-1.187 1.5 0 .983.616 1.375 1.219 1.375.677 0 1.036-.367 1.28-.656 0 0 .193.625.876.625.341 0 .562-.094.562-.094v-.844c-.355 0-.406-.23-.406-.375v-2.25c0-1.152-1.015-1.375-1.594-1.375zm4.188 0c-1.264 0-1.625.908-1.625 1.594 0 1.748 2.5 1.164 2.5 1.938 0 .18-.143.5-.688.5-.676 0-.875-.28-.875-.688h-1.093c.03 1.26 1.008 1.625 1.937 1.625.632 0 1.781-.247 1.781-1.625 0-1.72-2.53-1.197-2.531-1.937 0-.208.08-.438.656-.438.587 0 .673.285.719.594h1.031c-.086-1.335-1.013-1.563-1.812-1.563zm4.344 0c-1.264 0-1.625.908-1.625 1.594 0 1.748 2.5 1.164 2.5 1.938 0 .18-.138.5-.688.5-.677 0-.875-.28-.875-.688h-1.094c.028 1.26 1.008 1.625 1.938 1.625.635 0 1.781-.247 1.781-1.625 0-1.72-2.531-1.197-2.531-1.937 0-.208.072-.438.656-.438.583 0 .673.285.719.594h1.031c-.081-1.335-1.016-1.563-1.812-1.563zm4.437 0c-1.769 0-1.937 1.818-1.937 2.375 0 1.928.89 2.594 2.03 2.594.693 0 1.505-.364 1.782-1.5h-1.094c-.08.341-.39.5-.687.5-.861 0-.938-.81-.969-1.156h2.781v-.219c0-2.16-1.108-2.594-1.906-2.594zm-51.844.125v3.094c0 1.201.58 1.75 1.375 1.75.563 0 .973-.301 1.219-.812v.687h1.031v-4.719h-1.062v2.72c0 .837-.459 1.062-.813 1.062-.322 0-.687-.114-.687-.844v-2.938h-1.063zm-23.562.063v4.656h1.062v-4.656H5.469zm46.937 0v4.656h1.063v-4.656h-1.063zm-43.187.844c.34 0 .751.223.812 1H8.406c.06-.633.317-1 .813-1zm12.719 0c.343 0 .75.223.812 1h-1.656c.06-.633.34-1 .844-1zm27.718 0c.334 0 .747.223.813 1h-1.656c.057-.633.328-1 .843-1zm31.219 0c.344 0 .754.223.813 1h-1.657c.06-.633.344-1 .844-1zm-40.594.062c.738 0 .907.746.907 1.5 0 .694-.254 1.375-.938 1.375-.678 0-.875-.88-.875-1.437 0-.738.243-1.438.906-1.438zm28.188 1.469v.562a.95.95 0 0 1-.938.97c-.207 0-.5-.157-.5-.595 0-.512.33-.608.719-.687.441-.076.611-.149.719-.25zm15.125.969v1.312h1.156v-1.312h-1.156z"/>
</svg>
