<svg xmlns="http://www.w3.org/2000/svg" width="150px" height="81px" viewBox="-4.8 -4.8 314.55 169.51">
	<title>DAK logo</title>
	<path d="m259.79 63.37 43.14-33.03h-34.38l-28.31 23.6H228.1v-23.6h-22.92V96.4h22.92V72.8h12.14l28.99 23.6h35.73l-45.17-33.04M133.72 65.4l14.83-31 14.16 31h-28.99zM296.87 0H.23v18.2h132.8L93.27 96.4h26.3l6.06-12.8h44.5l7.41 12.8h25.62l-39.77-78.2h133.48V0M73.05 67.42c.12 5.04-1.6 10.87-6.07 10.78 0 .1-27.03.1-44.5 0-.15.1.2-29.32 0-28.99h42.48c7.28-.33 8.21 3.84 8.09 9.44.12.03.12 5.44 0 8.77zm22.92-12.14c.22-.36 1.95-24.76-24.95-24.94H.23V96.4c-.15.31 73.89.31 74.16 0 21.8.31 21.8-23.9 21.58-24.27.36-.13.22-16.91 0-16.86m190.6 69.01v-3.63h6.13v-7.86l4.54-1.97v9.83h7.72v3.63h-7.72v24.51c0 5.07.53 6.28 4.16 6.28a23 23 0 0 0 3.56-.22v3.93c-1.37.15-2.88.23-4.31.23-6.13 0-7.95-2.73-7.95-7.42v-27.3h-6.13m-11.87 34.56v-38.2h4.54v38.2h-4.54zm-.53-48.86v-5.75h5.6v5.75h-5.6m-13.77 27.08c0-8.47-1.36-13.54-8.62-13.54-7.26 0-8.63 5.07-8.63 13.54h17.25zm-17.25 3.63v2.95c0 5.3 1.44 12.33 8.63 12.33 5.67 0 8.47-3.63 8.4-8.77h4.76c-.53 9.22-5.52 12.4-13.16 12.4-6.58 0-13.16-2.65-13.16-14.22v-9.38c0-11.04 4.6-16.11 13.16-16.11 13.16 0 13.16 9.45 13.16 20.8h-21.79m-37.14 18.15v-54.61h4.54v21.1h.15c2.2-3.17 5.14-5.44 9.23-5.44 9.45 0 10.44 7.03 10.44 12.02v26.93h-4.54v-26.7c0-4.46-1.74-8.62-7.03-8.62-4.1 0-8.25 2.8-8.25 11.35v23.97H206m-13.77-15.65v-6.81c0-2.27 0-12.86-8.54-12.86-8.18 0-8.18 7.41-8.18 16.34 0 14.22 3.4 16.11 8.33 16.11 4.3 0 8.4-3.48 8.4-12.78zm.23 10.81-.15.08c-2.35 3.63-5.22 5.52-9.68 5.52-11.05 0-11.65-10.97-11.65-19.9 0-7.33 0-19.81 11.72-19.81a11.8 11.8 0 0 1 9.23 4.54l.15.07v-20.27h4.54v47.05a48 48 0 0 0 .45 7.56h-4.38l-.23-4.84m-49.1 4.84h-4.53v-38.2h4.53v4.7h.16c2.2-3.18 5.14-5.45 9.23-5.45 9.45 0 10.43 7.03 10.43 12.02v26.93h-4.54v-26.7c0-4.46-1.73-8.62-7.03-8.62-4.08 0-8.25 2.8-8.25 11.34v23.98m-14.07-38.2v38.2h-3.93v-4.23h-.15c-2.65 3.25-5.37 5-9.6 5-7.88 0-10.07-5.76-10.07-11.96v-27h4.54v26.24c0 1.06-.23 9.08 6.35 9.08 6.13 0 8.32-5.75 8.32-8.4v-26.93h4.54m-43.34 38.96c-8.25 0-11.5-4-11.43-12.1h4.62c0 5.22 1.2 8.7 7.03 8.7 4.4 0 6.51-2.5 6.51-6.73 0-9.99-17.17-7.42-17.17-20.05 0-7.04 4.84-9.53 11.5-9.53 7.56 0 9.98 5.22 9.98 11.04h-4.46c-.23-4.84-1.51-7.41-6.66-7.41-3.25 0-5.82 2.12-5.82 5.52 0 9.53 17.17 6.96 17.17 19.74 0 7.19-4.16 10.82-11.27 10.82m-22.92-22.54c0-8.47-1.37-13.54-8.63-13.54-7.26 0-8.62 5.07-8.62 13.54h17.25zm-17.25 3.63v2.95c0 5.3 1.44 12.33 8.62 12.33 5.68 0 8.47-3.63 8.4-8.77h4.76c-.53 9.22-5.52 12.4-13.16 12.4-6.58 0-13.16-2.65-13.16-14.22v-9.38c0-11.04 4.61-16.11 13.16-16.11 13.16 0 13.16 9.45 13.16 20.8H45.8m-19.07-6.28H15.68v-4.08h15.89v27.3a50.38 50.38 0 0 1-15.06 2.28c-17.78 0-16.49-17.78-16.49-28.37 0-10.6-1.29-28.37 16.5-28.37 10.43 0 15.8 4.46 15.57 15.05h-4.84c0-7.18-3.1-10.97-10.74-10.97-11.8 0-11.65 10.52-11.65 24.29 0 13.76-.15 24.28 11.65 24.28 4.16 0 7.64-.6 10.21-1.59v-19.82" style="fill:#ff6501;fill-opacity:1;fill-rule:nonzero;stroke:none"/>
</svg>