<svg aria-hidden="true" width="150px" height="150px" viewBox="-18 -17 35 35">
  <title>HanseMerkur logo</title>
  <path fill="#00a075" transform="scale(1,-1)" d="M0 0c-1.253 0-2.268 1.016-2.268 2.269S-1.253 4.538 0 4.538c1.254 0 2.269-1.016 2.269-2.269S1.254 0 0 0m7.307 11.332c0 1.252 1.015 2.268 2.269 2.268s2.269-1.016 2.269-2.268c0-1.254-1.015-2.27-2.269-2.27s-2.269 1.016-2.269 2.27M2.731-17.504h-5.46c-.125 0-.228.098-.236.223l-.843 13.804c-.63.086-1.24.195-1.828.322l.304-9.289c.004-.134-.102-.245-.237-.245h-5.048c-.121 0-.222.092-.234.212L-12.54 3.697c-.834.793-1.301 1.674-1.301 2.601 0 3.514 6.662 6.363 14.882 6.363.487 0 .971-.011 1.447-.031.131-.005.233-.114.233-.244V10.96c0-.138-.116-.247-.253-.243-3.172.09-6.043-.361-8.296-1.183-.099-.036-.162-.132-.159-.236l.253-8.666c-1.539.325-3.102.853-4.233 1.387V.821C-7.466-.439-3.928-1.227.002-1.227c2.031 0 3.958.211 5.691.588l.215 6.941c.004.107-.063.206-.167.239-2.158.703-4.717.942-7.841.613-.14-.015-.264.092-.264.233v1.451c0 .118.084.22.2.241 1.089.191 2.241.294 3.433.294 6.628 0 12.119-3.212 12.119-7.212 0-1.183-.49-2.32-1.354-3.311l-1.182-11.327c-.013-.12-.114-.212-.235-.212H5.569c-.134 0-.241.111-.236.244l.243 7.859c1.672.373 3.168.964 4.392 1.715v1.185c-1.659-.831-3.779-1.465-6.157-1.791l-.844-13.804c-.007-.125-.11-.223-.236-.223M-11.48 14.09c0 1.254 1.017 2.269 2.27 2.269s2.27-1.015 2.27-2.269c0-1.253-1.017-2.269-2.27-2.269s-2.27 1.016-2.27 2.269m-34.182-38.411h-2.282c-.148"></path>
</svg>