<svg width="150px" height="182px" viewBox="0 0 28 34" aria-hidden="true">
	<title>Feather logo</title>
	<defs>
		<path id="feather-1" d="M25.274 0C13.826 4.905 3.294 23.379.577 31.663c-.604 1.84-1.136 3.855.608.642 1.045-1.926 3.631-4.636 9.53-5.61 4.718-.777 6.694-1.788 9.72-5.227-1.395.5-3.197 1.546-7.043.347 5.334.469 9.01-2.692 10.446-7.19-3.522 1.598-6.503.48-7.284.069 4.805.12 8.856-2.935 9.831-8.024.568-2.966-.342-5.697-1.111-6.67Z"/>
	</defs>
	<g fill="none" fill-rule="evenodd" stroke="none" stroke-width="1">
		<g id="feather-colour">
			<mask id="feather-mask-2" fill="#fff">
				<use href="#feather-1"/>
			</mask>
			<g mask="url(#feather-mask-2)">
				<g transform="translate(-5.667 -13.458)">
					<path id="Path" fill="#6160A2" fill-rule="nonzero" d="M29.958 13.913C18.895 19.415 8.884 37.075 6.243 45.122c-.604 1.84-1.135 3.855.608.642 1.046-1.926 3.632-4.637 9.53-5.61 3.92-.646 5.947-1.453 8.256-3.68.409-.394.625-1.211.085-1.035-.625.204-1.27-.656-.668-.922 2.183-.963 3.836-2.728 4.871-4.948.26-.557-.329-1.107-.923-.954a8.754 8.754 0 0 1-2.924.248c-.747-.062-.637-.958.091-1.136 2.203-.536 4.403-1.635 5.669-3.014 1.178-1.283.836-2.61 1.214-4.585.436-2.28 0-4.421-.575-5.732-.257-.586-.947-.767-1.52-.483Z"/>
					<path id="Shape" fill="#90DF9B" fill-rule="evenodd" d="M40.204 20.416c0 11.103-8.881 20.247-20.013 20.247C9.06 40.663.178 31.52.178 20.416S9.059.17 20.191.17c11.132 0 20.013 9.144 20.013 20.247ZM20.191 35.351c8.12 0 14.7-6.687 14.7-14.935 0-8.248-6.58-14.934-14.7-14.934-8.119 0-14.7 6.686-14.7 14.934s6.581 14.935 14.7 14.935Z"/>
					<path id="Path" fill="#8E8CEE" fill-rule="nonzero" d="M34.892 20.416c0 8.248-6.582 14.935-14.7 14.935-8.12 0-14.702-6.687-14.702-14.935 0-8.248 6.582-14.934 14.701-14.934 8.12 0 14.7 6.686 14.7 14.934Z"/>
				</g>
			</g>
		</g>
	</g>
</svg>
