<svg width="60px" height="60px" viewBox="0 0 1200 1200" fill="currentColor" aria-hidden="true">
	<path d="m342.86 746.38h72.527c13.188 0 23.734-10.551 23.734-23.734v-145.05l11.867 6.5938c3.957 2.6367 7.9102 3.957 11.867 3.957 7.9102 0 15.824-3.957 21.098-11.867 6.5938-11.867 2.6367-26.375-7.9102-32.969l-167.47-98.902c-7.9102-3.957-17.145-3.957-25.055 0l-56.703 34.285v-19.781c0-13.188-10.551-23.734-23.734-23.734h-25.055c-13.188 0-23.734 10.551-23.734 23.734v63.297l-35.605 21.098c-11.867 6.5938-15.824 21.098-7.9102 32.969 6.5938 11.867 21.098 15.824 32.969 7.9102l11.867-6.5938v145.05c0 13.188 10.551 23.734 23.734 23.734h72.527c13.188 0 23.734-10.551 23.734-23.734v-90.988h44.836v90.988c-2.6367 13.188 7.9141 23.738 22.418 23.738zm-93.625-163.52c-13.188 0-23.734 10.551-23.734 23.734v92.309h-23.734l-0.003907-149.01 94.945-56.703 94.945 56.703v149.01h-23.734v-92.309c0-13.188-10.551-23.734-23.734-23.734z"/>
	<path d="m1164.4 175.38c-7.9102-3.9531-17.141-7.9102-30.328-9.2305 5.2734-32.969-15.824-65.934-48.793-73.848l-50.109-11.867c-35.605-9.2305-71.207 13.188-80.441 48.793l-127.91 614.5c-1.3203 6.5938 0 13.188 3.957 19.781l31.648 113.41c-2.6367 1.3203-3.957 2.6367-6.5938 3.957-17.145 15.824-35.605 30.328-54.066 44.836l-5.2734 5.2734c-1.3203 0-5.2734-3.957-9.2305-13.188l-1.3203-2.6367c-6.5938-14.504-15.824-35.605-36.922-43.516-27.691-10.551-55.383 5.2734-71.207 27.691-3.957 6.5938-7.9102 13.188-11.867 19.781 0 1.3203-1.3203 1.3203-1.3203 2.6367 0-17.145-3.957-42.199-29.012-51.43-23.734-7.9102-46.152 5.2734-60.66 35.605l-3.957 7.9102v-34.285c1.3203-29.012 1.3203-59.34-10.551-89.672-2.6367-6.5938-7.9102-17.145-19.781-22.418-9.2305-5.2734-25.055-7.9102-46.152 6.5938-54.066 38.242-90.988 97.582-102.86 162.2-2.6367 13.188 6.5938 26.375 19.781 27.691 13.188 2.6367 26.375-6.5938 27.691-19.781 9.2305-50.109 38.242-97.582 79.121-127.91 5.2734 17.145 5.2734 38.242 3.957 60.66-1.3203 30.328-2.6367 61.977 11.867 90.988 7.9102 15.824 18.461 21.098 27.691 22.418h3.957c7.9102 0 22.418-2.6367 31.648-22.418l19.781-38.242c-1.3203 14.504 3.957 35.605 18.461 48.793 9.2305 7.9102 21.098 10.551 32.969 6.5938 10.551-2.6367 18.461-10.551 19.781-13.188 9.2305-9.2305 14.504-19.781 19.781-30.328 2.6367-5.2734 5.2734-10.551 9.2305-14.504 5.2734-7.9102 13.188-10.551 14.504-10.551 2.6367 1.3203 7.9102 11.867 10.551 18.461l1.3203 2.6367c11.867 27.691 32.969 42.199 55.383 40.879 15.824-1.3203 26.375-10.551 32.969-15.824 18.461-14.504 55.383-52.746 72.527-68.57l2.6367-2.6367 84.395-88.352c6.5938-2.6367 10.551-7.9102 13.188-15.824l117.36-570.99c6.5938-1.3203 11.867-1.3203 14.504 1.3203 5.2734 3.957 7.9102 13.188 9.2305 19.781l-35.605 145.05c-2.6367 13.188 5.2734 26.375 17.145 29.012 1.3203 0 3.957 1.3203 5.2734 1.3203 10.551 0 21.098-7.9102 23.734-18.461l36.922-149.01c0-2.6367 1.3203-3.957 1.3203-6.5938 0-5.2812-1.3203-43.523-30.332-63.305zm-141.1-47.473 50.109 11.867c9.2305 2.6367 15.824 11.867 13.188 21.098l-1.3203 5.2734-84.395-21.094 1.3203-5.2734c1.3164-9.2305 11.867-14.508 21.098-11.871zm-123.96 701.54-13.188-47.473 46.152 11.867zm64.617-77.801-84.395-21.098 109.45-536.7 84.395 21.098z"/>
	<path d="m1163.1 464.18c-13.188 0-23.734 10.551-23.734 23.734v444.39c0 3.957-1.3203 109.45-138.46 109.45l-948.14 0.003906v-693.62h797.8c13.188 0 23.734-10.551 23.734-23.734 0-13.188-10.551-23.734-23.734-23.734l-821.54-0.003906c-13.188 0-23.734 10.551-23.734 23.734v742.42c0 13.188 10.551 23.734 23.734 23.734h971.87c184.62 0 187.25-156.92 187.25-158.24v-444.39c-1.3203-13.184-11.867-23.734-25.055-23.734z"/>
	<path d="m712.09 515.61c0-13.188-10.551-23.734-23.734-23.734l-141.1-0.003906c-13.188 0-23.734 10.551-23.734 23.734 0 13.188 10.551 23.734 23.734 23.734h141.1c13.188 0.003906 23.738-10.543 23.738-23.73z"/>
	<path d="m810.99 539.34c13.188 0 23.734-10.551 23.734-23.734 0-13.188-10.551-23.734-23.734-23.734l-59.34-0.003906c-13.188 0-23.734 10.551-23.734 23.734 0 13.188 10.551 23.734 23.734 23.734z"/>
	<path d="m547.25 607.91c-13.188 0-23.734 10.551-23.734 23.734 0 13.188 10.551 23.734 23.734 23.734h23.734c13.188 0 23.734-10.551 23.734-23.734 0-13.188-10.551-23.734-23.734-23.734z"/>
	<path d="m639.56 656.7h83.078c13.188 0 23.734-10.551 23.734-23.734 0-13.188-10.551-23.734-23.734-23.734h-83.078c-13.188 0-23.734 10.551-23.734 23.734-1.3203 11.867 10.551 23.734 23.734 23.734z"/>
</svg>
