<svg width="60px" height="60px" viewBox="-10 -10 101 101" fill="currentColor" aria-hidden="true">
	<path d="M28.936,47.739c-1.474,2.96-3.752,16.33-0.89,20.868c0.802,1.272,1.995,1.969,3.369,1.969c0.022,0,0.045,0,0.069,0   c1.323-0.022,2.174-0.548,2.765-1.167v14.152c0,3.406,2.772,6.177,6.178,6.177c1.572,0,2.991-0.608,4.082-1.579   c1.09,0.971,2.512,1.579,4.083,1.579c3.406,0,6.176-2.771,6.176-6.177V69.287c0.596,0.672,1.475,1.265,2.885,1.289   c0.023,0,0.047,0,0.072,0c1.367,0,2.563-0.696,3.365-1.969c2.861-4.533,0.586-17.908-0.891-20.87   c-1.211-2.42-2.996-4.532-5.152-6.152c2.848-2.797,4.564-6.643,4.564-10.777c0-8.345-6.789-15.136-15.133-15.136   c-8.345,0-15.134,6.791-15.134,15.136c0,4.214,1.745,8.096,4.617,10.877C31.861,43.293,30.118,45.368,28.936,47.739z    M37.594,44.279c0.963,0.493,1.987,0.897,3.07,1.179c0.175,0.047,0.352,0.067,0.525,0.067c0.926,0,1.773-0.623,2.017-1.56   c0.289-1.116-0.38-2.254-1.494-2.543c-4.827-1.254-8.198-5.619-8.198-10.614c0-6.046,4.918-10.967,10.964-10.967   c6.045,0,10.963,4.92,10.963,10.967c0,4.332-2.557,8.267-6.512,10.022c-1.055,0.468-1.529,1.7-1.061,2.752   c0.467,1.051,1.699,1.529,2.75,1.059c0.281-0.125,0.537-0.291,0.811-0.432c2.135,1.291,3.92,3.153,5.041,5.388   c1.375,2.767,2.621,14.267,1.215,16.634c-0.125-0.043-0.33-0.58-0.33-0.58c-0.264-0.562-0.666-3.041-0.934-4.682   c-0.715-4.408-1.119-6.454-1.99-7.545c0,0-0.527-1.113-2.352-0.719c-1.279,0.277-1.48,2.018-1.48,2.018v28.838   c0,1.107-0.902,2.008-2.008,2.008c-1.092,0-1.979-0.884-1.996-1.975c0-0.013,0.004-0.022,0.004-0.033V68.528   c0-1.152-0.935-2.085-2.084-2.085c-1.152,0-2.084,0.933-2.084,2.085v14.984c0,0.019-0.01,0.031-0.01,0.049   c0,0.011,0.004,0.021,0.004,0.033c-0.018,1.091-0.904,1.975-1.997,1.975c-1.107,0-2.009-0.9-2.009-2.008V54.724   c0,0-0.146-1.527-1.555-2.018c-1.407-0.492-2.156,0.715-2.156,0.715c-0.874,1.093-1.281,3.137-1.993,7.54   c-0.265,1.641-0.667,4.123-0.916,4.652c0,0-0.197,0.639-0.35,0.616c-1.403-2.374-0.157-13.867,1.219-16.63   C33.762,47.403,35.503,45.567,37.594,44.279z"/><path d="M49.053,35.327c0.936-0.672,1.146-1.975,0.475-2.909c-0.672-0.935-1.973-1.148-2.908-0.475   c-2.071,1.488-3.879,0.299-4.227,0.039c-0.906-0.694-2.205-0.534-2.911,0.364c-0.713,0.906-0.556,2.217,0.35,2.927   c0.91,0.717,2.654,1.558,4.71,1.558C45.953,36.832,47.514,36.435,49.053,35.327z"/><path d="M40.885,30.297c1.279,0,2.319-1.037,2.319-2.309c0-1.279-1.04-2.319-2.319-2.319c-1.274,0-2.313,1.04-2.313,2.319   C38.573,29.26,39.611,30.297,40.885,30.297z"/><path d="M48.066,30.297c1.277,0,2.313-1.037,2.313-2.309c0-1.279-1.035-2.319-2.313-2.319c-1.275,0-2.314,1.04-2.314,2.319   C45.752,29.26,46.791,30.297,48.066,30.297z"/><path d="M2.422,74.989c-1.152,0-2.084,0.933-2.084,2.085c0,1.15,0.933,2.084,2.084,2.084h27.293c1.152,0,2.084-0.934,2.084-2.084   c0-1.152-0.932-2.085-2.084-2.085H12.385V26.402L45.267,5.131L78.314,26.51h-0.16v48.479H59.465c-1.152,0-2.084,0.933-2.084,2.085   c0,1.15,0.932,2.084,2.084,2.084h29.113c1.15,0,2.084-0.934,2.084-2.084c0-1.152-0.934-2.085-2.084-2.085h-6.254V29.104   l5.121,3.314c0.352,0.226,0.742,0.334,1.131,0.334c0.684,0,1.354-0.334,1.752-0.951c0.625-0.967,0.35-2.258-0.619-2.883   L46.398,0.898c-0.687-0.446-1.576-0.446-2.264,0L22.5,14.894V2.647c0-1.15-0.932-2.084-2.084-2.084H10.304   c-1.152,0-2.084,0.935-2.084,2.084v21.487l-6.93,4.483c-0.967,0.625-1.244,1.916-0.619,2.883c0.625,0.965,1.916,1.244,2.882,0.617   L8.216,29.1v45.89H2.422z M12.389,4.732h5.942v12.859l-5.942,3.846V4.732z"/>
</svg>
