<svg width="60px" height="60px" viewBox="0 0 91 91" fill="currentColor" aria-hidden="true">
	<path d="M34.1,49.8c1.5,0,2.9,0.3,4.3,0.9l1.4-3.1c-1.8-0.8-3.7-1.2-5.7-1.2c-5.5,0-10.2,3.2-12.2,7.7h-3.2v3.4H21   c0,0.4-0.1,0.8-0.1,1.3c0,0.4,0,0.8,0.1,1.3h-2.3v3.4h3.2c2,4.5,6.7,7.7,12.2,7.7c1.9,0,3.8-0.4,5.6-1.2l-1.4-3.1   c-1.3,0.6-2.7,0.9-4.2,0.9c-3.5,0-6.6-1.7-8.3-4.3h11.1V60H24.4c-0.1-0.4-0.1-0.8-0.1-1.3c0-0.4,0-0.9,0.1-1.3h12.5v-3.4H25.7   C27.4,51.5,30.5,49.8,34.1,49.8z"/><path d="M78.5,29.5c0.9,0,1.7-0.8,1.7-1.7V14.6c0-0.9-0.8-1.7-1.7-1.7h-36c-0.9,0-1.7,0.8-1.7,1.7v11.6h-5.5   c-0.9,0-1.7,0.8-1.7,1.7v8.4c-0.6-0.1-1.3-0.1-1.9-0.1c-12.5,0-22.6,10.2-22.6,22.6s10.2,22.6,22.6,22.6c8.7,0,16.2-4.9,20-12.1H80   c0.9,0,1.7-0.8,1.7-1.7V54.3c0-0.9-0.8-1.7-1.7-1.7h-1.8V41.1c0-0.9-0.8-1.7-1.7-1.7H73v-9.9H78.5z M71.3,56v9.9H59.4V56H71.3z    M55.8,52.6v-9.9h11.9v9.9H55.8z M52.3,26.2v-9.9h3.3v9.9H52.3z M49,29.5v9.9h-3.3v-9.9H49z M49.1,42.8h3.3v7c-0.9-2-2-3.8-3.3-5.4   V42.8z M52.4,39.4v-9.9h11.9v9.9H52.4z M59,26.2v-9.9h11.9v9.9H59z M76.8,26.2h-2.5v-9.9h2.5V26.2z M44.2,16.3h4.7v9.9h-4.7V16.3z    M37,29.5h5.3v9.2c-1.7-0.9-3.4-1.6-5.3-2V29.5z M31.7,78c-10.6,0-19.3-8.6-19.3-19.3s8.6-19.3,19.3-19.3s19.3,8.6,19.3,19.3   S42.3,78,31.7,78z M54.1,56H56v9.9h-2.8c0.7-2.2,1.2-4.6,1.2-7.1C54.3,57.8,54.2,56.9,54.1,56z M78.3,65.9h-3.6V56h3.6V65.9z    M74.7,52.6h-3.6v-9.9h3.6V52.6z M69.6,39.4h-1.9v-9.9h1.9V39.4z"/>
</svg>
