<svg width="75px" height="60px" fill="currentColor" viewBox="0 0 100 100" aria-hidden="true">
	<path d="M22.81 15.2a1.81 1.81 0 0 1 2.33-2.76 56.11 56.11 0 0 1 8.94 9.77 1.83 1.83 0 0 1-3 2.13 45.26 45.26 0 0 0-8.29-9.14ZM67.36 75a1.82 1.82 0 0 1-3.51 1l-2.76-10.43a1.75 1.75 0 1 1 3.4-.85ZM49.49 46a1.8 1.8 0 0 1-1.38-2.12 3.9 3.9 0 0 0-3.93-4.78 6 6 0 0 0-4 1.38 1.77 1.77 0 1 1-2.55-2.44A5.2 5.2 0 0 1 38.76 37a.91.91 0 0 0 .1-1.38c-5.21-4.46-15.42-1.49-16.48 5.1-.11.53.11 1.28.64 1.38l6.06 1.6a3.68 3.68 0 0 1 2.55 4.3 1.84 1.84 0 0 1-3.63-.29.79.79 0 0 0-.64-.74l-3.72-1a.89.89 0 0 0-1.07.54l-7.42 27.88A2.56 2.56 0 0 0 17 77.57l18.71 5a2.66 2.66 0 0 0 3.19-1.81c2.66-9.14 5-18.59 7.44-27.84a.87.87 0 0 0-.53-1.06l-3.08-.74a.75.75 0 0 0-1.06.53l-.43 1.48a5.94 5.94 0 0 1-6.91 4.36c-.53 0-1 .21-1.06.64l-.75 3.08c-.64 2.23-4.15 1.38-3.51-1l.99-3.78a3.55 3.55 0 0 1 4.36-2.55c1.48.42 2.87 0 3.29-1.6l.68-2.28a3.54 3.54 0 0 1 4.36-2.55l6.49 1.7c1.27.31.42.31 1.59 0l6.49-1.7a3.67 3.67 0 0 1 4.46 2.44l.53 2.44c.43 1.6 1.92 2 3.41 1.6a3.56 3.56 0 0 1 4.34 2.5l1.06 3.82a1.82 1.82 0 0 1-3.51 1l-.85-3.08a.93.93 0 0 0-1-.64 5.88 5.88 0 0 1-6.91-4.36l-.42-1.48a.79.79 0 0 0-1.07-.53l-3.08.74a1 1 0 0 0-.64 1.06l7.45 27.84a2.66 2.66 0 0 0 3.19 1.81l18.71-5a2.72 2.72 0 0 0 1.91-3.18l-7.38-27.88c-.21-.43-.64-.75-1.06-.54l-3.83 1a.92.92 0 0 0-.64.74 1.61 1.61 0 0 1-1.27 1.6A1.77 1.77 0 0 1 68.42 48a3.84 3.84 0 0 1 .32-2.65A4.5 4.5 0 0 1 71 43.68l6-1.6c.53-.1.63-.85.63-1.38-1.06-6.59-11.27-9.56-16.48-5a.75.75 0 0 0 .15 1.3 5.66 5.66 0 0 1 1.17 1.07 1.76 1.76 0 0 1-2.55 2.44 6.89 6.89 0 0 0-4.05-1.38 4 4 0 0 0-4 4.78A1.79 1.79 0 0 1 50.45 46a1.43 1.43 0 0 1-1 0ZM19.4 43.46a5 5 0 0 1-.53-3.29c1.6-10.41 17.65-14.34 24.24-5a1.25 1.25 0 0 0 .86.32 7.34 7.34 0 0 1 5.42 2 .83.83 0 0 0 1.17 0 7.73 7.73 0 0 1 5.31-2c.43 0 .75 0 1-.32 6.7-9.35 22.65-5.32 24.35 5a5 5 0 0 1-.53 3.29.68.68 0 0 0-.11.75l.64 2.44a.88.88 0 0 0 1.07.64l3.93-1.06a3.79 3.79 0 0 1 5.1 2.65L94.79 62a5.24 5.24 0 0 1-2.34 6l-4.25 2.24a1 1 0 0 0-.43 1.06l.54 2.13A6.09 6.09 0 0 1 84 81c-6.38 1.7-12.55 3.83-19 5.1a6.11 6.11 0 0 1-7.23-4.46l-7.32-26.91a.44.44 0 0 0-.85 0l-7.23 26.88a6.11 6.11 0 0 1-7.23 4.46c-6.49-1.27-12.76-3.4-19-5.1a6.22 6.22 0 0 1-4.47-7.54l.64-2.13a1 1 0 0 0-.43-1.06L7.6 68c-2.13-1-2.98-3.82-2.45-6l3.51-13a3.81 3.81 0 0 1 5.11-2.76c1.27.32 2.66.74 4 1.06a.85.85 0 0 0 1.06-.64l.64-2.44a.87.87 0 0 0-.11-.75Zm-6.59 6.17c-.32-.11-.53-.11-.64.32l-3.51 13c-.21.53 0 1.7.53 1.91l3.19 1.7a.85.85 0 0 0 1.28-.56l3.83-14.24a1 1 0 0 0-.64-1.06c-1.28-.32-2.76-.64-4-1.06ZM36.2 76a1.82 1.82 0 0 1-3.51-1l2.77-10.3a1.81 1.81 0 0 1 2.23-1.28A1.74 1.74 0 0 1 39 65.57Zm51-26.35-4 1.06a.91.91 0 0 0-.64 1.06L86.39 66a.78.78 0 0 0 1.17.53l3.19-1.7c.64-.21.75-1.27.64-1.91L87.88 50c-.11-.43-.21-.43-.64-.32ZM54.92 24.76c-.53 2.23-4 1.6-3.51-.74L53 16.26a1.79 1.79 0 1 1 3.51.75ZM44.71 15.2a1.79 1.79 0 0 1-3.51.74l-1.81-8.82c-.53-2.33 3-3 3.51-.74Zm27.22-3.61a1.77 1.77 0 1 1 2.34 2.65 49.27 49.27 0 0 0-8.08 9.35 1.8 1.8 0 0 1-3-2 51.92 51.92 0 0 1 8.72-10Z"/>
</svg>