<svg width="60px" height="60px" viewBox="10 10 81 81" fill="currentColor" aria-hidden="true">
	<path d="M30.5,63.2c0,2.3-0.9,4.5-2.5,6.2c-0.6,0.6-0.5,1.6,0.1,2.1c0.3,0.3,0.7,0.4,1,0.4c0.4,0,0.8-0.2,1.1-0.5  c2.1-2.2,3.3-5.2,3.3-8.3c0-2.5-0.8-5-2.3-7c-0.5-0.7-1.4-0.8-2.1-0.3c-0.7,0.5-0.8,1.4-0.3,2.1C29.9,59.4,30.5,61.3,30.5,63.2z   M24,72.7c-0.3,0.3-0.4,0.7-0.4,1.1c0,0.4,0.2,0.8,0.4,1.1c0.3,0.3,0.7,0.4,1.1,0.4c0.4,0,0.8-0.2,1.1-0.4c0.3-0.3,0.4-0.7,0.4-1.1  c0-0.4-0.2-0.8-0.4-1.1C25.6,72.1,24.6,72.1,24,72.7z M77.6,51.1c-0.8,0-1.5,0.7-1.5,1.5s0.7,1.5,1.5,1.5c5,0,9,4.1,9,9  c0,2.3-0.9,4.5-2.5,6.2c-0.6,0.6-0.5,1.6,0.1,2.1c0.3,0.3,0.7,0.4,1,0.4c0.4,0,0.8-0.2,1.1-0.5c2.1-2.2,3.3-5.2,3.3-8.3  C89.7,56.5,84.3,51.1,77.6,51.1z M80.2,72.7c-0.3,0.3-0.4,0.7-0.4,1.1c0,0.4,0.2,0.8,0.4,1.1c0.3,0.3,0.7,0.4,1.1,0.4  c0.4,0,0.8-0.2,1.1-0.4c0.3-0.3,0.4-0.7,0.4-1.1c0-0.4-0.2-0.8-0.4-1.1C81.8,72.1,80.8,72.1,80.2,72.7z M77.6,44.7  c-2.9,0-5.7,0.7-8.1,1.9l-5.3-9.2l2.9-7.5h1.8c1.4,0,2.7-0.6,3.7-1.6l-2.2-2.1c-0.4,0.4-1,0.7-1.5,0.7h-8.3c-1.4,0-2.7,0.6-3.7,1.6  l2.2,2.1c0.4-0.4,1-0.7,1.5-0.7h3.2l-2.4,6.2H34.3l4-9.2H23.6c-2.8,0-5.1,2.3-5.1,5.1c0,2.8,2.3,5.1,5.1,5.1v-3  c-1.2,0-2.1-1-2.1-2.1c0-1.2,1-2.1,2.1-2.1h10.1l-6.8,15.6c-1.7-0.5-3.5-0.8-5.4-0.8C11.3,44.7,3,53,3,63.2s8.3,18.4,18.4,18.4  s18.4-8.3,18.4-18.4c0-7.2-4.2-13.4-10.2-16.5l1-2.4l14.8,16.5c-0.3,0.7-0.5,1.5-0.5,2.3c0,3.3,2.7,6,6,6c2.8,0,5.2-1.9,5.8-4.5h2.3  C60,74.1,68,81.6,77.6,81.6c10.2,0,18.4-8.3,18.4-18.4S87.8,44.7,77.6,44.7z M36.9,63.2c0,8.5-6.9,15.4-15.4,15.4  C13,78.6,6,71.7,6,63.2c0-8.5,6.9-15.4,15.4-15.4c1.5,0,2.9,0.2,4.2,0.6L21.5,58c-2.8,0-5.1,2.3-5.1,5.1c0,2.8,2.3,5.1,5.1,5.1  s5.1-2.3,5.1-5.1c0-1.8-0.9-3.3-2.3-4.3l4.1-9.5C33.5,52,36.9,57.2,36.9,63.2z M23.6,63.2c0,1.2-1,2.1-2.1,2.1c-1.2,0-2.1-1-2.1-2.1  c0-1.2,1-2.1,2.1-2.1C22.6,61,23.6,62,23.6,63.2z M68.4,50.8l5.3,9.1c-0.4,0.5-0.8,1.1-1,1.8H62.3C62.7,57.2,65,53.3,68.4,50.8z   M51.1,64.7h2.6c-0.5,0.9-1.5,1.5-2.6,1.5c-1.7,0-3-1.4-3-3s1.4-3,3-3c1.1,0,2.1,0.6,2.6,1.5h-2.6c-0.8,0-1.5,0.7-1.5,1.5  S50.3,64.7,51.1,64.7z M57,61.7c-0.7-2.6-3-4.5-5.8-4.5c-1.4,0-2.7,0.5-3.7,1.3L32,41.3l1-2.2h28.6l5.3,9.1  c-4.3,3.1-7.2,7.9-7.6,13.5H57z M77.6,78.6c-8,0-14.6-6.1-15.4-13.9h10.5c0.6,2.1,2.6,3.6,4.9,3.6c2.8,0,5.1-2.3,5.1-5.1  S80.4,58,77.6,58c-0.5,0-1,0.1-1.4,0.2l-5.2-9c2-1,4.3-1.5,6.6-1.5c8.5,0,15.4,6.9,15.4,15.4C93,71.7,86.1,78.6,77.6,78.6z   M75.5,63.2c0-1.2,1-2.1,2.1-2.1s2.1,1,2.1,2.1c0,1.2-1,2.1-2.1,2.1S75.5,64.3,75.5,63.2z"/>
</svg>
