<svg width="60px" height="60px" viewBox="-15 -15 116 116" fill="currentColor" aria-hidden="true">

 <g>
  <title>Layer 1</title>
  <g id="svg_1">
   <path id="svg_2" d="m25.449,37.106l-9.26,0c-1.156,0 -2.094,0.938 -2.094,2.094s0.938,2.094 2.094,2.094l9.26,0c1.156,0 2.094,-0.938 2.094,-2.094s-0.938,-2.094 -2.094,-2.094z"/>
   <path id="svg_3" d="m25.449,50.665l-9.26,0c-1.156,0 -2.094,0.938 -2.094,2.094s0.938,2.094 2.094,2.094l9.26,0c1.156,0 2.094,-0.938 2.094,-2.094s-0.938,-2.094 -2.094,-2.094z"/>
   <path id="svg_4" d="m25.449,64.226l-9.26,0c-1.156,0 -2.094,0.938 -2.094,2.094s0.938,2.094 2.094,2.094l9.26,0c1.156,0 2.094,-0.938 2.094,-2.094s-0.938,-2.094 -2.094,-2.094z"/>
   <path id="svg_5" d="m46.361,37.106l-9.261,0c-1.156,0 -2.094,0.938 -2.094,2.094s0.938,2.094 2.094,2.094l9.262,0c1.156,0 2.094,-0.938 2.094,-2.094s-0.938,-2.094 -2.095,-2.094z"/>
   <path id="svg_6" d="m46.361,50.665l-9.261,0c-1.156,0 -2.094,0.938 -2.094,2.094s0.938,2.094 2.094,2.094l9.262,0c1.156,0 2.094,-0.938 2.094,-2.094s-0.938,-2.094 -2.095,-2.094z"/>
   <path id="svg_7" d="m46.361,64.226l-9.261,0c-1.156,0 -2.094,0.938 -2.094,2.094s0.938,2.094 2.094,2.094l9.262,0c1.156,0 2.094,-0.938 2.094,-2.094s-0.938,-2.094 -2.095,-2.094z"/>
   <path id="svg_8" d="m58.008,41.294l9.262,0c1.156,0 2.094,-0.938 2.094,-2.094s-0.938,-2.094 -2.094,-2.094l-9.262,0c-1.156,0 -2.094,0.938 -2.094,2.094s0.938,2.094 2.094,2.094z"/>
   <path id="svg_9" d="m58.008,54.853l9.262,0c1.156,0 2.094,-0.938 2.094,-2.094s-0.938,-2.094 -2.094,-2.094l-9.262,0c-1.156,0 -2.094,0.938 -2.094,2.094s0.938,2.094 2.094,2.094z"/>
   <path id="svg_10" d="m87.936,67.124c-1.131,0.24 -1.855,1.352 -1.615,2.482c0.201,0.955 0.303,1.941 0.303,2.928c0,7.775 -6.324,14.1 -14.098,14.1s-14.098,-6.324 -14.098,-14.1c0,-7.773 6.324,-14.098 14.098,-14.098c3.492,0 6.783,1.275 9.367,3.584l-9.373,10.026l-3.725,-3.957c-0.793,-0.844 -2.117,-0.883 -2.959,-0.09c-0.842,0.791 -0.883,2.117 -0.09,2.959l5.254,5.584c0.396,0.42 0.947,0.658 1.525,0.658c0,0 0.002,0 0.004,0c0.578,0 1.131,-0.24 1.525,-0.664l16.193,-17.322c0.789,-0.844 0.744,-2.17 -0.102,-2.959c-0.844,-0.791 -2.17,-0.746 -2.959,0.1l-2.438,2.609c-0.57,-0.514 -1.16,-0.994 -1.779,-1.426l0,-33.033c0,-0.01 -0.004,-0.02 -0.004,-0.029l0,-15.748c0,-1.156 -0.938,-2.094 -2.094,-2.094l-13.656,0l0,-3.836c0,-1.156 -0.938,-2.094 -2.094,-2.094s-2.094,0.938 -2.094,2.094l0,3.836l-19.203,0l0,-3.836c0,-1.156 -0.938,-2.094 -2.094,-2.094s-2.094,0.938 -2.094,2.094l0,3.836l-19.204,0l0,-3.836c0,-1.156 -0.938,-2.094 -2.094,-2.094s-2.094,0.938 -2.094,2.094l0,3.836l-13.66,0c-1.156,0 -2.094,0.938 -2.094,2.094l0,15.773c0,0 0,0 0,0.002c0,0 0,0 0,0.002l0,59.861c0,1.156 0.938,2.094 2.094,2.094l57.971,0c0.045,0 0.088,-0.012 0.133,-0.014c3.193,2.721 7.324,4.375 11.838,4.375c10.084,0 18.285,-8.203 18.285,-18.287c0,-1.277 -0.133,-2.553 -0.395,-3.793c-0.238,-1.131 -1.35,-1.851 -2.48,-1.617zm-83.258,-56.303l11.566,0l0,3.727c0,1.156 0.938,2.094 2.094,2.094s2.094,-0.938 2.094,-2.094l0,-3.727l19.205,0l0,3.727c0,1.156 0.938,2.094 2.094,2.094s2.094,-0.938 2.094,-2.094l0,-3.727l19.203,0l0,3.727c0,1.156 0.938,2.094 2.094,2.094s2.094,-0.938 2.094,-2.094l0,-3.727l11.564,0l0,11.586l-74.102,0l0,-11.586zm0,15.778l74.105,0l0,28.766c-1.982,-0.721 -4.086,-1.115 -6.258,-1.115c-10.082,0 -18.285,8.203 -18.285,18.285c0,3.582 1.049,6.914 2.836,9.738l-52.398,0l0,-55.674z"/>
  </g>
 </g>
</svg>