<svg height="60px" width="60px" viewBox="0 0 91 91" fill="currentColor" aria-hidden="true">
	<path d="M54.741,1.17c-0.939,0-1.698,0.758-1.698,1.697v4.641h-4.486c-0.938,0-1.697,0.761-1.697,1.697v6.353h-2.075   c-0.939,0-1.697,0.758-1.697,1.697V38.72h-5.072c-0.938,0-1.697,0.758-1.697,1.697v15.767c0,0.939,0.759,1.699,1.697,1.699h6.77   h19.914h13.56h10.901c0.938,0,1.697-0.76,1.697-1.699V25.745c0-0.939-0.759-1.697-1.697-1.697h-3.752v-6.034   c0-0.938-0.759-1.697-1.697-1.697s-1.697,0.759-1.697,1.697v6.034h-3.755c-0.937,0-1.696,0.758-1.696,1.697v2.789H66.398V17.256   c0-0.939-0.761-1.697-1.7-1.697h-2.074V9.206c0-0.937-0.76-1.697-1.695-1.697h-4.491V2.867C56.438,1.929,55.679,1.17,54.741,1.17z    M43.087,54.486h-3.375V42.114h3.375V54.486z M79.957,30.232v-2.791h7.505v27.044h-7.505V30.232z M66.398,31.929h10.163v22.557   H66.398V31.929z M63.003,18.953v11.28v24.254H46.48v-14.07V18.953h2.076h12.372H63.003z M59.229,10.905v4.654h-8.975v-4.654H59.229   z"/><path d="M50.187,26.717h1c0.939,0,1.698-0.761,1.698-1.697c0-0.939-0.759-1.699-1.698-1.699h-1c-0.938,0-1.699,0.76-1.699,1.699   C48.487,25.956,49.248,26.717,50.187,26.717z"/><path d="M58.295,26.717h1.004c0.938,0,1.697-0.761,1.697-1.697c0-0.939-0.759-1.699-1.697-1.699h-1.004   c-0.939,0-1.698,0.76-1.698,1.699C56.597,25.956,57.355,26.717,58.295,26.717z"/><path d="M51.187,29.171h-1c-0.938,0-1.699,0.761-1.699,1.699c0,0.937,0.761,1.697,1.699,1.697h1c0.939,0,1.698-0.76,1.698-1.697   C52.885,29.932,52.126,29.171,51.187,29.171z"/><path d="M58.295,32.567h1.004c0.938,0,1.697-0.76,1.697-1.697c0-0.938-0.759-1.699-1.697-1.699h-1.004   c-0.939,0-1.698,0.761-1.698,1.699C56.597,31.807,57.355,32.567,58.295,32.567z"/><path d="M51.187,35.023h-1c-0.938,0-1.699,0.759-1.699,1.697c0,0.939,0.761,1.697,1.699,1.697h1c0.939,0,1.698-0.758,1.698-1.697   C52.885,35.782,52.126,35.023,51.187,35.023z"/><path d="M58.295,38.417h1.004c0.938,0,1.697-0.758,1.697-1.697c0-0.938-0.759-1.697-1.697-1.697h-1.004   c-0.939,0-1.698,0.759-1.698,1.697C56.597,37.659,57.355,38.417,58.295,38.417z"/><path d="M51.187,40.873h-1c-0.938,0-1.699,0.758-1.699,1.697s0.761,1.697,1.699,1.697h1c0.939,0,1.698-0.759,1.698-1.697   S52.126,40.873,51.187,40.873z"/><path d="M58.295,44.267h1.004c0.938,0,1.697-0.759,1.697-1.697s-0.759-1.697-1.697-1.697h-1.004c-0.939,0-1.698,0.758-1.698,1.697   S57.355,44.267,58.295,44.267z"/><path d="M51.187,46.722h-1c-0.938,0-1.699,0.759-1.699,1.696c0,0.94,0.761,1.699,1.699,1.699h1c0.939,0,1.698-0.759,1.698-1.699   C52.885,47.48,52.126,46.722,51.187,46.722z"/><path d="M58.295,50.117h1.004c0.938,0,1.697-0.759,1.697-1.699c0-0.938-0.759-1.696-1.697-1.696h-1.004   c-0.939,0-1.698,0.759-1.698,1.696C56.597,49.358,57.355,50.117,58.295,50.117z"/><path d="M71.479,35.369c-0.937,0-1.697,0.758-1.697,1.697v2.7c0,0.938,0.761,1.697,1.697,1.697c0.938,0,1.699-0.758,1.699-1.697   v-2.7C73.178,36.127,72.417,35.369,71.479,35.369z"/><path d="M71.479,43.676c-0.937,0-1.697,0.759-1.697,1.697v2.7c0,0.939,0.761,1.697,1.697,1.697c0.938,0,1.699-0.758,1.699-1.697   v-2.7C73.178,44.435,72.417,43.676,71.479,43.676z"/><path d="M15.906,55.093c0.33,0.321,0.759,0.486,1.188,0.486c0.429,0,0.857-0.162,1.187-0.484l3.286-3.213   c0.45-0.438,0.623-1.094,0.442-1.696l-3.172-10.714c-0.212-0.715-0.867-1.208-1.613-1.216h-0.017c-0.737,0-1.392,0.481-1.616,1.185   l-3.392,10.716c-0.195,0.608-0.027,1.276,0.429,1.724L15.906,55.093z M17.153,45.748l1.31,4.421l-1.367,1.336l-1.347-1.319   L17.153,45.748z"/><path d="M21.227,29.423c0.762-0.545,0.937-1.606,0.39-2.369c-0.545-0.76-1.604-0.938-2.369-0.39   c-2.14,1.529-4.042,0.201-4.264,0.036c-0.744-0.568-1.796-0.438-2.372,0.293c-0.58,0.738-0.452,1.805,0.286,2.385   c0.821,0.645,2.391,1.401,4.248,1.401C18.422,30.78,19.835,30.423,21.227,29.423z"/><path d="M13.727,24.663c1.056,0,1.917-0.858,1.917-1.913c0-1.054-0.86-1.91-1.917-1.91c-1.053,0-1.909,0.856-1.909,1.91   C11.818,23.805,12.674,24.663,13.727,24.663z"/><circle cx="20.452" cy="22.751" r="1.911"/><path d="M13.295,89.417c1.485,0,2.831-0.597,3.823-1.555c0.994,0.958,2.341,1.555,3.826,1.555c3.048,0,5.529-2.479,5.529-5.526   V63.602c0.489,0.838,1.309,1.958,3.128,1.991c0.017,0,0.034,0,0.05,0c0.682,0,1.904-0.229,2.819-1.678   c2.837-4.501,0.653-19.44-0.721-22.195c-1.212-2.431-3.072-4.509-5.311-6.045c2.847-2.596,4.567-6.298,4.567-10.281   c0-7.673-6.241-13.916-13.916-13.916c-7.675,0-13.916,6.243-13.916,13.916c0,4.026,1.726,7.722,4.55,10.295   c-2.229,1.538-4.078,3.61-5.281,6.03c-1.372,2.757-3.556,17.696-0.719,22.195c0.916,1.449,2.139,1.678,2.822,1.678   c0.017,0,0.033,0,0.05,0c1.879-0.033,2.689-1.229,3.174-2.07v20.368C7.771,86.938,10.25,89.417,13.295,89.417z M6.002,55.644   c-0.273,2.161-0.804,6.756-1.396,6.507c-1.768-1.982-0.562-16.025,0.878-18.918c1.142-2.297,3.019-4.208,5.286-5.443   c0.885,0.45,1.821,0.821,2.812,1.078c0.144,0.037,0.286,0.054,0.427,0.054c0.754,0,1.444-0.508,1.641-1.27   c0.236-0.908-0.308-1.834-1.216-2.07c-4.629-1.2-7.864-5.39-7.864-10.186c0-5.802,4.721-10.52,10.522-10.52   c5.802,0,10.522,4.718,10.522,10.52c0,4.156-2.453,7.931-6.248,9.62c-0.857,0.381-1.241,1.384-0.861,2.24   c0.381,0.857,1.386,1.243,2.239,0.861c0.226-0.102,0.431-0.234,0.648-0.346c2.277,1.231,4.167,3.152,5.319,5.464   c1.444,2.896,2.653,17.007,0.865,18.933c-0.773,0.341-1.113-4.384-1.387-6.555c-0.663-5.277-1.011-7.524-1.807-8.521   c-0.381-0.481-0.988-0.763-1.674-0.628c-0.746,0.155-1.63,0.844-1.63,1.685v35.743c0,1.175-0.956,2.13-2.133,2.13   c-1.164,0-2.104-0.937-2.125-2.093c0-0.013,0.004-0.024,0.004-0.037V64.521c0-0.937-0.76-1.697-1.699-1.697   c-0.937,0-1.697,0.761-1.697,1.697v19.312c0,0.021-0.01,0.036-0.01,0.058c0,0.013,0.002,0.024,0.002,0.037   c-0.021,1.156-0.962,2.093-2.124,2.093c-1.175,0-2.13-0.955-2.13-2.13v-36.1c0-0.938-0.759-1.716-1.697-1.697   c-1.076,0.021-1.577,0.899-1.651,0.995C7.019,48.088,6.667,50.345,6.002,55.644z"/>
</svg>
