<svg width="60px" height="60px" viewBox="-100 -100 1400 1400" fill="currentColor" aria-hidden="true">
  <path d="M378.74 421.13c-61.715 44.043-92.836 109.17-97.848 204.95-.1328 2.2812.0547 4.5352.5156 6.7773 5.0625 25.32 28.074 72.066 79.715 68.676 33.613-2.3867 53.355-16.445 64.891-30.977l-5.6953 13.016c-1.4102 3.4023-33.242 82.062 21.98 135.44 1.1992 4.3516 2.4414 12.223-.9883 20.953-6.9375 17.855-71.762 149.04-113.68 232.83-.6875 1.4102-1.2773 2.8633-1.7266 4.3789-3.2305 10.801-18.25 66.434 5.3008 99.086 10.062 13.965 25.754 21.93 44.941 22.496h748.23c15.098 0 27.324-12.238 27.324-27.309l-.0039-1140.8c0-15.113-12.238-27.324-27.324-27.324h-632.89c-15.098 0-27.324 12.211-27.324 27.324v164.19c0 15.098 12.223 27.324 27.324 27.324 15.113 0 27.324-12.223 27.324-27.324v-120.61l231.24 66.223v40.551c-4.828-1.8984-9.7305-3.7578-14.809-5.3125-100.29-30.344-206.56 26.547-236.93 126.82-12.422 41.117-10.301 83.777 4.0078 121.87-46.547-14.715-96.277-22.785-123.59-3.2969zm63.113 213.1c.582-4.9844.7773-11.078.9492-19.172.2774-10.785.9766-37.871 4.8398-48.434 12.066-3.125 19.426 1.7812 20.293 2.4258l1.832 1.2773zM660.373 58h436.7v1086.1h-593.67c4.9844-19.727 12.988-46.34 25.16-73.359 10.113-22.523 42.25-90.41 77.062-163.55 15.402 6.5156 25.305 15.031 29.973 26.137 8.0195 19.254-1.1602 41.5-1.8047 43.133-12.355 33.547-19.977 98.52 29.777 129.03 18.977 11.617 36.488 15.852 51.68 15.852 24.605 0 43.16-11.184 51.863-20.359 2.5859-2.7578 4.5898-5.9727 5.8555-9.5352 1.5547-4.2344 37.742-104.91 50.715-174.27 14.348-76.457-100.46-147.12-141.85-169.86 19.438-40.656 33.719-70.352 33.918-70.828.1602.5273 3.875 14.875 5.4062 19.871 11.723 38.137 50.426 109.23 112.68 105.66 71.34-4.0078 110.98-44.504 128.4-131.16 3.4531-11.75 18.582-69.902-5.8281-107.26-11.129-17.039-28.496-27.375-50.215-29.855-29.395-3.2969-55.199 5.75-73.477 25.16-10.695-18.461-27.059-33.27-45.996-44.398 35.289-24.012 62.48-59.379 75.336-101.89 22.34-73.766-2.6914-150.71-57.391-198.36l.004-94.383c0-12.16-8.043-22.891-19.793-26.254zm25.949 855.02c-9.918-24.328-29.395-42.66-57.336-54.949 10.062-21.086 19.965-41.789 29.273-61.32 53.539 30.066 117.2 81.152 111.72 110.4-10.168 54.383-36.898 133.04-45.586 157.93-5.3125 2.3594-15.758 3.9414-32.242-6.1328-23.129-14.188-7.5703-62.031-7.6875-62.031 1.9375-4.3984 18.277-43.668 1.8594-83.891zm-122.24-405.06c5.4062 4.1797 11.012 8.2148 17.012 11.867 12.805 7.793 29.656 3.7852 37.531-9.0977 7.8711-12.855 3.7852-29.695-9.0742-37.543-52.562-32.125-76.812-95.789-58.945-154.8 21.652-71.445 97.438-111.96 168.79-90.383 13.516 4.0898 25.926 10.152 37.004 17.695 2.9805 3.6797 6.5938 6.7266 11.078 8.4922 21.957 18.582 37.293 43.754 44.098 71.473-7.3711 5.5-12.199 14.203-12.199 24.039 0 10.984 6.0117 20.547 14.875 25.805-.961 7.1211-2.3359 14.215-4.457 21.309-.25.7773-.6445 1.5039-.8828 2.2422-24.199 15.98-45.191 2.5586-49.332-.5273-11.922-9.125-28.852-6.961-38.164 4.8008-9.2852 11.867-7.2383 29.039 4.6289 38.375 8.9414 6.9883 24.316 14.836 42.883 18.027-19.91 17.312-44.715 28.891-71.922 32.293 0 0-13.992 7.3828-13.582 26.48.5547 25.992 16.906 27.941 16.906 27.941.1719 0 .289 0 .4492-.0274.1172 0 .2227.0274.3555.0274 37.848-.9375 84.066 19.926 90 55.742 9.664 57.98 31.832 77.262 38.398 81.77 10.879 7.4766 25.531 6.1328 34.867-3.2031 9.3242-9.375 10.617-24.012 3.0977-34.879-7.7148-11.078-7.5547-30.078.3281-43.266 6.7383-11.312 17.5-16.246 32.176-14.559 7.6758.8828 9.6406 3.8516 10.695 5.4336 8.375 12.777 4.2852 44.992-1.1094 62.715-.2656.9101-.5 1.8477-.6992 2.7695-15.48 78.555-45.785 86.691-78.145 88.535-26.109 1.9648-50.164-43.793-57.363-67.215-1.3438-4.3516-2.7812-9.9023-4.3008-15.875-8.1875-31.66-14.148-51.625-28.574-61.965-7.4258-5.3125-16.852-7.1094-25.926-4.8672-6.3828 1.582-23.379 5.789-48.633 56.348-6.5898 13.824-161.89 338.06-187.21 394.41-16.656 37.066-26.465 73.305-31.543 95.855l-71.672.1836c-3.9961-4.8516-3.7305-28.207 2.1367-49.383 14.992-30.039 104.81-210 114.57-235.17 14.148-36.133-.961-66.223-2.7148-69.547-1.6094-3.0312-3.797-5.6953-6.4102-7.9531-32.125-27.391-13.094-75.812-12.516-77.312l58.09-133.12c5.1836-11.801 1.3828-25.609-9.086-33.113l-19.926-14.23c-20.969-14.992-49.332-17.762-75.996-7.5156-33.348 12.938-34.574 61.305-35.461 96.645-.16 6.1719-.1835 11.262-.5 13.594-2.6093 11.867-12.844 18.516-30.395 19.754-12.738.832-19.609-15.48-21.613-22.113 6.1173-98.125 43.066-136.68 74.73-159.27 14.941-9.1367 87.691 10.945 153.65 42.316z"/>
  <path d="M740.08 379.89c16.617 0 30.16-13.516 30.16-30.145 0-16.617-13.543-30.145-30.16-30.145-16.668 0-30.25 13.531-30.25 30.145 0 16.613 13.582 30.145 30.25 30.145M42.027 250.75c0 15.086 12.211 27.324 27.309 27.324h197.64c15.086 0 27.336-12.238 27.336-27.324 0-15.098-12.25-27.324-27.336-27.324l-197.64.004c-15.098 0-27.309 12.223-27.309 27.32"/>
  <path d="M286.3 122.46c-10.668-10.668-27.957-10.668-38.625 0-10.668 10.68-10.668 27.969 0 38.637l89.645 89.645-89.645 89.645c-10.668 10.668-10.668 27.969 0 38.637 5.3398 5.3398 12.305 8.0039 19.305 8.0039 6.9883 0 13.992-2.6641 19.32-8.0039l108.96-108.96c10.68-10.68 10.68-27.957 0-38.625z"/>
</svg>
