<svg width="60px" height="60px" viewBox="0 0 91 91" fill="currentColor" aria-hidden="true">
	<path d="M40.26 34.7a1.36 1.36 0 0 0-2.6-.02l-2.99 9.45c-.15.48-.02 1.02.34 1.37l2.9 2.84a1.36 1.36 0 0 0 1.9 0l2.9-2.83c.35-.35.49-.88.35-1.36l-2.8-9.45zm-1.4 10.77-1.35-1.32 1.4-4.42 1.3 4.4-1.35 1.34zm3.56-19.79a1.36 1.36 0 0 0-1.58-2.2 3.28 3.28 0 0 1-3.93.03 1.36 1.36 0 0 0-1.67 2.14 6.2 6.2 0 0 0 3.66 1.2c1.1 0 2.32-.3 3.52-1.17zm-6.53-4.22a1.55 1.55 0 1 0 0-3.1 1.55 1.55 0 0 0 0 3.1zm5.93 0a1.55 1.55 0 1 0 0-3.1 1.55 1.55 0 0 0 0 3.1zm20.81 6.56c-.47.6-.36 1.45.23 1.9a5.95 5.95 0 0 0 7.18.04 1.36 1.36 0 0 0-1.58-2.2 3.3 3.3 0 0 1-3.93.03 1.36 1.36 0 0 0-1.9.23z"/><circle cx="63.51" cy="24.19" r="1.55"/><path d="M69.43 25.74a1.55 1.55 0 1 0 0-3.1 1.55 1.55 0 0 0 0 3.1zM15.26 45.72a1.36 1.36 0 0 0-1.9-.31c-1.31.95-2.47.2-2.7.03A1.36 1.36 0 0 0 9 47.58a4.93 4.93 0 0 0 5.96.04c.6-.44.74-1.29.3-1.9zm-5.57-1.33a1.5 1.5 0 0 0 0-3.01 1.5 1.5 0 0 0 0 3z"/><circle cx="14.31" cy="42.88" r="1.5"/><path d="M81.69 31.17c-1.68 0-3.29.47-4.69 1.32a12.1 12.1 0 0 0 1.6-5.97 12.15 12.15 0 0 0-24.27 0c0 3.57 1.56 6.84 4.1 9.09-2.96 1.7-5.22 6.21-5.27 6.29a29.16 29.16 0 0 0-1.5-5.19 14.1 14.1 0 0 0-4.77-5.39 12.13 12.13 0 1 0-16.08.01 14.05 14.05 0 0 0-4.75 5.38c-.61 1.22-3.6 9.47-4.06 15.14-.22.16-1.28.49-3.44.04a9.75 9.75 0 1 0-13.3-.16 11.3 11.3 0 0 0-3.5 4.1c-.9 1.8-2.43 9.48-.62 12.34a2.59 2.59 0 0 0 2.23 1.29h.04a2.41 2.41 0 0 0 1.99-.97v8.08a3.96 3.96 0 0 0 6.61 2.98 4 4 0 0 0 6.61-2.98V60.26c.43.05.91.06 1.44.08 7.1.3 8.98-6.66 10.7-12.13v27.62a4.74 4.74 0 0 0 8.11 3.31 4.73 4.73 0 0 0 8.11-3.31v-24.7c.74 3.01 1.61 5.25 1.61 5.25.43.76 1.07 1.9 2.79 1.94h.05c.18 0 .35-.03.53-.07.22.43.67.74 1.19.74h.02c1.89-.04 2.7-1.44 3.13-2.19.33-.57 1.85-4.2 1.93-4.39 0 .02.02.03.03.05L56.2 64.81a1.36 1.36 0 0 0 1.34 1.58h.84v9.44a4.74 4.74 0 0 0 8.11 3.31 4.72 4.72 0 0 0 8.1-3.31v-9.44h1.66a1.36 1.36 0 0 0 1.34-1.6s-1.5-7.65-1.54-7.72l1.58-1.58.02.01.64.18c.65.2 1.41.43 2.2.43a3.74 3.74 0 0 0 3.5-2.45c.57-1.48.32-3.32-.13-4.75a8.95 8.95 0 0 0 6.84-8.73c0-2.4-.94-4.67-2.64-6.37a8.93 8.93 0 0 0-6.37-2.64zM17.63 57.34s-.6-.2-1.2.24c-.49.37-.51 1.07-.51 1.07v17.92a1.27 1.27 0 0 1-2.54.03v-9.06a1.36 1.36 0 1 0-2.72 0v9.08a1.27 1.27 0 0 1-2.54-.04v-16.5c0-.74-.6-1.35-1.36-1.35-.46 0-.85.25-1.1.6-.06.05-.13.09-.18.15-.58.73-.87 2.1-1.28 4.25-.18.89-.43 2.22-.59 2.52l-.13.24-.1.17c-.8-1.3-.15-7.68.82-9.61a8.5 8.5 0 0 1 3.48-3.62c.6.3 1.2.55 1.86.72a1.35 1.35 0 0 0 1.66-.98 1.36 1.36 0 0 0-.98-1.65 7.03 7.03 0 1 1 4.63-.38s-.7.28-.75 1.17c-.04.89.83 1.34.83 1.34 2.13.8 4.06 1.2 5.63 1.2.55 0 1.03-.06 1.49-.16.1.64.26 1.2.52 1.63.16.25.36.45.57.62-2.27 1.23-5.47.42-5.51.41zm33.7-1.74s-.73.26-1.96-6.18c-.96-4.96-1.8-7.15-2.43-7.95-.15-.19-.56-.97-1.44-.73-.89.25-1.23 1.2-1.23 1.58v33.51a2.02 2.02 0 0 1-4.04.05V54.6a1.36 1.36 0 0 0-2.71 0v21.28a2.02 2.02 0 0 1-4.04-.05V42a1.34 1.34 0 0 0-2.48-.72c-.07.06-1.72 3.18-3.67 8.3a79.3 79.3 0 0 1-1.94 4.88c-.1.18-.2.36-.58.3-1.05-1.97 2-13.48 3.68-16.84a11.35 11.35 0 0 1 4.78-4.9 12 12 0 0 0 2.52.98 1.36 1.36 0 0 0 .68-2.63 9.41 9.41 0 1 1 6.2-.51 1.36 1.36 0 0 0 1.1 2.48c.23-.1.43-.23.64-.34a11.36 11.36 0 0 1 4.82 4.92c.73 1.48 1.58 5.32 2.1 9.06v.05c.55 3.91.72 7.7 0 8.57zm5.72-29.08a9.43 9.43 0 0 1 18.84 0c0 3.72-2.2 7.1-5.6 8.61a1.36 1.36 0 0 0 1.11 2.49 11.5 11.5 0 0 0 2.14-1.27c-.4.86-.67 1.78-.8 2.7-.32.15-5.38 4.02-12.38-1.12l-.24-.16c.25-.16.5-.33.77-.47.79.4 1.63.74 2.52.97a1.36 1.36 0 0 0 .68-2.63 9.42 9.42 0 0 1-7.04-9.12zm13.8 30.97a5.29 5.29 0 0 1-5.25-8.81l3.59-3.6.13-.1 1.54 12.51zm-5.7 18.3-.02.04v.05a2.02 2.02 0 0 1-4.03-.05V66.4h4.04v9.38zm6.74.04a2.02 2.02 0 0 1-4.04.05V66.4h4.04v9.43zM59.15 63.68l1.63-11.4c.06-.39.04-5.69.04-5.69s.17-.9-.93-1.25c-.95-.32-1.5.4-1.5.4-.63.8-1.55 2.97-2.9 6.18-.4 1-.83 2-1.14 2.7.28-2.1.1-4.93-.29-7.75.53-2 2.1-5.58 4.07-7.51.07.18.16.35.3.5a11.92 11.92 0 0 0 8.46 3.52l.18-.01-3.4 3.39a7.97 7.97 0 0 0-2.34 5.67 8 8 0 0 0 12.41 6.71l.88 4.54H59.14zm15.34-12.45c-.2.92.05 1.97.75 2.82l-1.85 1.84-.85-6.95h3.97a3.24 3.24 0 0 0-2.02 2.3zm6.97 1.46c-.13.34-.33.54-.67.66-.38.13-2.25-.43-2.5-.48-.85-.21-1.23-.7-1.15-1.06.08-.33.66-.58 1.64-.4a1.35 1.35 0 0 0 1.04-2.44c.4.1.83.15 1.24.18.43 1.02.76 2.6.4 3.54zm4.68-8.06a6.31 6.31 0 0 1-6.07 1.64c-.15-.04-7.86-.05-7.86-.05l-.31-2.56c.45-.1.92-.15 1.4-.11l.04-.01c.16.4.34.8.56 1.17a1.36 1.36 0 0 0 2.34-1.37 6.3 6.3 0 1 1 9.9 1.3z"/><path d="M81.78 41.8a2.24 2.24 0 0 1-1.87-1.96 1.36 1.36 0 0 0-2.7.26 5.01 5.01 0 0 0 4.31 4.39 1.36 1.36 0 0 0 .26-2.7zm-.7-2.94a1.55 1.55 0 0 0 0-3.1 1.55 1.55 0 0 0 0 3.1z"/><circle cx="84.27" cy="40.74" r="1.55"/>
</svg>