<svg width="60px" height="60px" viewBox="-10 -10 111 111" fill="currentColor" aria-hidden="true">
	<path d="M72.53 23.89a11.75 11.75 0 0 0-23.48 0 11.75 11.75 0 0 0 23.48 0zm-18.45 0a6.72 6.72 0 1 1 13.44.02 6.72 6.72 0 0 1-13.44-.02z"/><path d="M85.15 43.29a2.51 2.51 0 0 0-2.47-2.04h-6.7c3.91-5.77 7.14-12.02 7.14-16.89A22.36 22.36 0 0 0 60.8 2.02a22.36 22.36 0 0 0-22.34 22.34c0 4.87 3.24 11.11 7.15 16.89H8.94c-1.24 0-2.3.9-2.48 2.13L.7 81.48a2.51 2.51 0 0 0 2.48 2.88h77.1c5.87 0 10.66-4.78 10.66-10.66 0-.16-.02-.31-.05-.47l-5.75-29.94zM43.48 24.36c0-9.54 7.77-17.31 17.31-17.31 9.55 0 17.3 7.77 17.3 17.31 0 4.58-4.35 11.67-9.1 18h-.01a142.49 142.49 0 0 1-8.19 9.85c-6.1-6.7-17.31-20.5-17.31-27.85zm5.76 21.91a143.92 143.92 0 0 0 9.74 11.37 2.52 2.52 0 0 0 3.62 0c.96-1 5.3-5.58 9.74-11.37h8.26l3.04 15.81-.25.15-7.9 5.7-51.23-21.66h24.97zM6.1 79.34l5-33.07h.25l18.27 7.72L7.84 79.34H6.11zm8.36 0 20.02-23.3 36.23 15.34-11.02 7.96H14.47zm65.81 0h-12l16.4-11.84 1.24 6.42c-.12 3-2.6 5.42-5.64 5.42z"/>
</svg>