<svg width="60px" height="60px" fill="currentColor" viewBox="0 0 91 91" aria-hidden="true">
	<path d="M89.209,12.669h-5.806L78.917,3.58c-0.278-0.568-0.855-0.927-1.489-0.927H41.993c-0.559,0-1.079,0.28-1.387,0.749   L34.489,12.7c-0.179,0.272-0.276,0.591-0.276,0.915v33.128c0,0.919,0.745,1.662,1.664,1.662h30.027l-2.239,14.151   c-0.074,0.48,0.064,0.967,0.378,1.338c0.317,0.371,0.777,0.583,1.264,0.583h16.096c0.816,0,1.513-0.596,1.64-1.402l1.474-9.318   l1.117,9.258c0.103,0.842,1.038,1.463,1.849,1.45c0.918-0.013,1.56-0.938,1.451-1.849l-2.545-21.102   c-0.181-1.507-1.648-1.46-1.648-1.46h-1.061V29.641h5.531c0.918,0,1.661-0.741,1.661-1.66V14.332   C90.87,13.413,90.127,12.669,89.209,12.669z M76.394,5.976l3.961,8.027v0.81c-0.241,2.041-1.961,3.63-4.063,3.63   c-2.267,0-4.108-1.844-4.108-4.113c0-0.106-0.061-0.437-0.083-0.503l-2.491-7.851H76.394z M60.636,5.976h5.486l2.718,8.562   c-0.11,2.168-1.896,3.905-4.092,3.905c-2.269,0-4.112-1.844-4.112-4.113V5.976z M51.823,5.976h5.487v8.354   c0,2.269-1.843,4.113-4.11,4.113c-2.199,0-3.987-1.745-4.091-3.921L51.823,5.976z M37.538,14.112l5.352-8.136h5.449l-2.494,7.851   c-0.029,0.085-0.077,0.414-0.077,0.503c0,2.269-1.848,4.113-4.115,4.113c-2.267,0-4.111-1.844-4.111-4.113   c0-0.008-0.004-0.017-0.004-0.024V14.112z M66.43,45.081H37.538V20.515c1.178,0.787,2.592,1.251,4.115,1.251   c2.342,0,4.41-1.111,5.776-2.811c1.364,1.7,3.431,2.811,5.771,2.811c2.342,0,4.411-1.109,5.774-2.809   c1.363,1.7,3.432,2.809,5.773,2.809c2.343,0,4.41-1.109,5.771-2.809c1.363,1.7,3.431,2.809,5.771,2.809   c1.5,0,2.894-0.454,4.063-1.223v19.51h-4.082V25.979c0-0.917-0.743-1.662-1.661-1.662H42.6c-0.919,0-1.661,0.745-1.661,1.662   v15.407c0,0.919,0.742,1.661,1.661,1.661h24.15L66.43,45.081z M72.949,27.641v12.083H44.26V27.641H72.949z M79.981,61.155h-12.73   l2.811-17.78h12.731L79.981,61.155z M87.546,26.319h-3.819V15.992h3.819V26.319z"/><path d="M52.313,37.03c0.423,0,0.85-0.162,1.175-0.485l4.122-4.116c0.649-0.649,0.649-1.704,0.002-2.353   c-0.649-0.649-1.703-0.647-2.353,0l-4.121,4.117c-0.649,0.649-0.649,1.701-0.002,2.35C51.461,36.868,51.886,37.03,52.313,37.03z"/><path d="M57.554,37.944c0.326,0.325,0.751,0.487,1.178,0.487c0.423,0,0.849-0.162,1.174-0.487l6.169-6.171   c0.649-0.648,0.649-1.699,0-2.349c-0.648-0.648-1.699-0.648-2.348,0l-6.173,6.169C56.905,36.243,56.905,37.296,57.554,37.944z"/><path d="M73.171,48.994h4.52c0.916,0,1.662-0.742,1.662-1.661s-0.746-1.662-1.662-1.662h-4.52c-0.916,0-1.66,0.743-1.66,1.662   S72.255,48.994,73.171,48.994z"/><path d="M71.976,53.927h5.683c0.918,0,1.662-0.741,1.662-1.661c0-0.919-0.744-1.661-1.662-1.661h-5.683   c-0.92,0-1.663,0.742-1.663,1.661C70.313,53.186,71.056,53.927,71.976,53.927z"/><path d="M75.222,56.23h-3.18c-0.92,0-1.661,0.744-1.661,1.664c0,0.916,0.741,1.66,1.661,1.66h3.18c0.918,0,1.661-0.744,1.661-1.66   C76.883,56.975,76.14,56.23,75.222,56.23z"/><path d="M12.229,27.609c-0.568,0.722-0.441,1.766,0.28,2.334c0.803,0.63,2.34,1.373,4.157,1.373c1.25,0,2.63-0.351,3.995-1.33   c0.747-0.534,0.919-1.572,0.384-2.316c-0.534-0.744-1.573-0.92-2.318-0.383c-2.093,1.5-3.961,0.199-4.178,0.035   C13.827,26.766,12.792,26.894,12.229,27.609z"/><path d="M13.322,25.33c1.033,0,1.876-0.842,1.876-1.874c0-1.03-0.843-1.87-1.876-1.87c-1.03,0-1.87,0.84-1.87,1.87   C11.452,24.488,12.292,25.33,13.322,25.33z"/><path d="M19.903,25.33c1.03,0,1.872-0.842,1.872-1.874c0-1.03-0.842-1.87-1.872-1.87s-1.87,0.84-1.87,1.87   C18.033,24.488,18.873,25.33,19.903,25.33z"/><path d="M2.277,42.025c-1.341,2.697-3.481,17.32-0.705,21.722c0.897,1.419,2.095,1.643,2.762,1.643c0.016,0,0.032,0,0.048,0   c1.838-0.032,2.631-1.2,3.108-2.026V83.3c0,2.981,2.425,5.409,5.409,5.409c1.454,0,2.768-0.582,3.741-1.521   c0.974,0.938,2.29,1.521,3.744,1.521c2.981,0,5.409-2.428,5.409-5.409V63.443c0.481,0.819,1.286,1.914,3.065,1.946   c0.016,0,0.032,0,0.048,0c0.667,0,1.866-0.224,2.761-1.645c2.78-4.407,0.639-19.026-0.708-21.722   c-1.185-2.379-3.006-4.411-5.196-5.916c2.787-2.541,4.469-6.165,4.469-10.063c0-7.51-6.11-13.621-13.622-13.621   c-7.508,0-13.619,6.111-13.619,13.621c0,3.941,1.69,7.561,4.454,10.078C5.266,37.628,3.455,39.656,2.277,42.025z M14.987,83.235   c-0.002,0.021-0.014,0.042-0.014,0.064c0,0.015,0.006,0.026,0.006,0.043c-0.024,1.129-0.943,2.044-2.078,2.044   c-1.15,0-2.087-0.936-2.087-2.087V67.683h4.174V83.235z M22.473,83.3c0,1.151-0.938,2.087-2.087,2.087   c-1.137,0-2.057-0.915-2.082-2.044c0-0.017,0.004-0.028,0.004-0.043V67.683h4.165V83.3z M22.473,64.358h-11.66V51.566h11.66V64.358   z M27.989,43.506c1.413,2.835,2.595,16.644,0.844,18.531c-0.695,0.237-1.09-4.297-1.357-6.423   c-0.649-5.158-1.042-7.321-1.767-8.334c-0.454-0.636-1.562-0.628-1.562-0.628c-0.684,0.019-1.625,0.801-1.661,1.589h-0.958   l2.732-9.161C25.825,40.24,27.121,41.763,27.989,43.506z M6.315,26.043c0-5.679,4.62-10.297,10.296-10.297   c5.679,0,10.301,4.618,10.301,10.297c0,4.069-2.401,7.764-6.115,9.417c-0.837,0.373-1.215,1.356-0.844,2.192   c0.2,0.446,0.574,0.748,1.002,0.891l-2.854,9.564c-0.012,0.045-0.002,0.089-0.012,0.133h-2.955   c-0.013-0.058-0.002-0.117-0.021-0.175l-2.999-9.159c0.348,0.12,0.701,0.229,1.063,0.323c0.138,0.037,0.279,0.053,0.417,0.053   c0.738,0,1.414-0.495,1.606-1.244c0.23-0.888-0.304-1.794-1.191-2.026C9.479,34.839,6.315,30.741,6.315,26.043z M8.742,39.283   l2.935,8.958h-0.864v-0.275c0-0.919-0.743-1.642-1.661-1.662c-1.057-0.021-1.543,0.881-1.616,0.975   c-0.781,0.978-1.124,3.186-1.775,8.366c-0.267,2.117-0.712,6.525-1.369,6.376c-1.728-1.942-0.547-15.686,0.86-18.517   C6.071,41.854,7.288,40.419,8.742,39.283z"/>
</svg>
