<svg width="60px" height="60px" viewBox="0 0 91 91" fill="currentColor" aria-hidden="true">
	<path d="M77.247,30.065c0.083-0.078,0.168-0.149,0.249-0.23c2.989-2.989,3.814-6.675,1.918-8.573   c-0.669-0.67-1.587-1.024-2.652-1.024c-1.866,0-4.08,1.1-5.923,2.942c-0.495,0.495-0.926,1.01-1.3,1.533   c-0.374-0.523-0.805-1.039-1.3-1.533c-1.842-1.843-4.056-2.942-5.922-2.942c-1.064,0-1.982,0.354-2.651,1.024   c-1.87,1.871-1.091,5.479,1.797,8.445h-3.396h-3.059c-2.484-4.834-7.478-5.932-7.704-5.979L34.34,23.693   c-13.422,0-24.341,10.919-24.341,24.341S20.918,72.375,34.34,72.375h14.666c3.644,0,6.607-2.965,6.607-6.608   c0-1.2-0.326-2.323-0.888-3.294c3.163-0.49,5.595-3.225,5.595-6.523c0-1.35-0.408-2.605-1.106-3.652   c2.479-0.955,4.244-3.354,4.244-6.164c0-1.164-0.306-2.258-0.836-3.209h1.969h3.248h0.195h3.205h3.879h0.204l0.001-0.01   c3.55-0.111,6.404-3.024,6.404-6.599C81.728,33.418,79.849,30.954,77.247,30.065z M67.839,39.523h-0.348l-0.513-3.208l-0.514-3.208   h1.374V39.523z M73.243,25.584c1.345-1.346,2.736-1.947,3.519-1.947c0.161,0,0.244,0.027,0.24,0.021   c0.158,0.306-0.11,1.973-1.91,3.772c-1.345,1.345-2.736,1.946-3.519,1.946c-0.145,0-0.221-0.021-0.237-0.021   c-0.002,0-0.003,0-0.004,0C71.174,29.051,71.442,27.384,73.243,25.584z M62.058,23.676c0,0,0.071-0.039,0.26-0.039   c0.782,0,2.174,0.602,3.518,1.947c1.815,1.814,2.073,3.494,1.932,3.754c0,0.001-0.071,0.039-0.261,0.039   c-0.783,0-2.175-0.602-3.519-1.946C62.173,25.616,61.915,23.938,62.058,23.676z M60.058,46.133c0,1.77-1.439,3.208-3.209,3.208   h-3.136h-3.51v3.4h3.51c1.769,0,3.207,1.438,3.207,3.208s-1.438,3.209-3.207,3.209h-4.707h-1.738h-0.202v3.4h0.202h1.738   c1.769,0,3.207,1.439,3.207,3.208s-1.438,3.208-3.207,3.208H34.34c-11.547,0-20.94-9.394-20.94-20.94s9.394-20.94,20.94-20.94   h12.412c0.572,0.153,2.597,0.805,4.176,2.613h-9.936v3.4h16.249l-1.557,6.416h-5.28h-0.201v3.4h0.201h4.455h1.989   C58.618,42.924,60.058,44.363,60.058,46.133z M59.184,39.523l1.557-6.416h2.281l0.514,3.208l0.512,3.208H59.184z M71.239,39.523   v-6.416h1.98l-0.868,6.416H71.239z M75.792,39.449l0.807-5.963c1.022,0.537,1.729,1.597,1.729,2.829   C78.327,37.854,77.238,39.139,75.792,39.449z"/>
</svg>
