<svg width="60px" height="60px" fill="currentColor" viewBox="0 0 1200 1200" aria-hidden="true">
	<path d="M706.3 191.41c0 13.312-10.793 24.105-24.105 24.105-13.316 0-24.105-10.793-24.105-24.105s10.789-24.105 24.105-24.105c13.312 0 24.105 10.793 24.105 24.105M787.5 191.41c0 13.312-10.793 24.105-24.105 24.105s-24.105-10.793-24.105-24.105 10.793-24.105 24.105-24.105S787.5 178.098 787.5 191.41M242.34 476.69c-7.32 9.336-5.723 22.867 3.625 30.223 10.023 7.91 29.25 17.168 51.957 17.168 15.586 0 32.848-4.379 49.887-16.602 9.652-6.937 11.883-20.359 4.945-30.027-6.937-9.664-20.359-11.867-30.039-4.945-25.277 18.117-47.762 2.347-50.309.449-9.351-7.188-22.762-5.512-30.066 3.734zM256.64 450.21c13.305 0 24.145-10.828 24.145-24.133 0-13.277-10.828-24.105-24.145-24.105-13.293 0-24.117 10.828-24.117 24.105.012 13.305 10.84 24.133 24.117 24.133zM337.83 450.21c13.305 0 24.145-10.828 24.145-24.133 0-13.277-10.828-24.105-24.145-24.105-13.277 0-24.066 10.828-24.066 24.105-.012 13.305 10.773 24.133 24.066 24.133z"/><path d="m1172 57.164-118.39-51.93c-6.582-2.863-14.309-2.293-20.398 1.7-6.106 3.968-9.746 10.733-9.746 18v103.83c0 .066.027.105.027.183v78.37c-9.336 3.997-17.039 9.31-21.77 13.755a21.446 21.446 0 0 0-5.023 7.199c-.395.898-9.707 22.723-24.066 64.406-6.883 20.07-27.336 21.18-29.367 21.242h-57.47c32.399-31.332 51.97-74.715 51.97-121.36 0-93.23-75.902-169.11-169.12-169.11-93.242 0-169.09 75.863-169.09 169.11 0 48.594 20.73 93.219 54.688 124.48-30.328 22.641-55.793 55.965-69.414 83.301-3.375 6.805-9.43 16.867-16.641 28.934-20.82 34.801-45.586 76.43-56.941 113.45-55.133 45.309-86.77 46.445-87.363 46.445h-57.414c32.398-31.332 51.93-74.703 51.93-121.33 0-93.23-75.863-169.09-169.12-169.09-93.27 0-169.09 75.863-169.09 169.09 0 48.594 20.742 93.219 54.688 124.46-30.305 22.668-55.805 55.977-69.414 83.328-.973 2.004-95.258 199.44-31.54 249 7.255 5.656 22.497 17.512 40.974 17.512 9.258 0 19.32-2.98 29.605-11.156 9.719-7.805 17.129-24.621 31.188-68.809v266.55c0 8.98 1.82 17.512 5.023 25.332l-95.832-.004c-11.906 0-21.508 9.625-21.508 21.535 0 11.883 9.614 21.535 21.508 21.535h301.28v-133.31h267.24v-122.1h263.61l.004-129.14h261.23c11.922 0 21.52-9.613 21.52-21.508s-9.601-21.52-21.52-21.52h-154.89c11.79-11.883 17.328-26.637 18.66-36.75.133-.922.184-1.86.184-2.781v-152.97c0-20.031-15.441-71.973-85.438-71.973l-52.906-1.254v-64.363l116.81-.371c60.594 0 82.285-48.316 83.629-51.43l45.547-122.23a21.405 21.405 0 0 0 1.16-10.38c-1.953-14.968-13.332-42.671-43.188-51.401-.422-.133-.844-.133-1.293-.266v-60.539l105.48-46.246a21.522 21.522 0 0 0 12.883-19.715c.02-8.515-5.043-16.27-12.863-19.71zm-868.88 963.56v133.32h-36.922c3.18-7.848 5.023-16.379 5.023-25.359l-.304-218.01 79.027.078c.027.266.054.488.027.645-.094.882-.172 1.804-.172 2.714v73.32c0 1.977.278 3.997.832 5.883 2.281 7.965 7.149 18.184 14.715 27.414l-62.227.004zm136.67-36.699c-.844 4.18-5.273 17.656-25.66 17.656-12.66 0-19.133-12.672-21.285-17.906v-68.609c.477-5.79.527-21.324-10.062-33.68-5.207-6.094-14.809-13.426-31.504-13.871h-101.91a21.508 21.508 0 0 0-15.23 6.316c-4.063 4.063-6.277 9.559-6.277 15.23l.304 239.57c0 13.637-11.09 24.738-24.738 24.738-13.637 0-24.699-11.102-24.699-24.738v-390.39c0-11.867-9.68-20.504-21.508-21.52-12.566-1.066-19.848 11.273-20.77 12.422-7.66 9.614-14.359 30.238-30.145 82.301-8.675 28.617-23.05 76.008-29.883 86.625-2.203 1.372-5.101 1.055-16.113-7.503-20.664-16.09 12.605-133.45 43.688-195.84 15.23-30.66 43.832-61.938 69.23-76.38 10.574 5.356 21.56 10.024 33.402 13.095 1.82.476 3.653.699 5.461.699 9.547 0 18.277-6.422 20.781-16.102 3.008-11.523-3.902-23.273-15.39-26.254-55.517-14.426-94.259-64.602-94.259-122.03 0-69.508 56.57-126.07 126.07-126.07 69.508 0 126.09 56.547 126.09 126.07 0 49.793-29.406 95.012-74.902 115.23 0 0-9.203 8.715-9.203 24.395 0 20.836 17.988 24.766 17.988 24.766l113.73-.028c.25.028.645.028 1.121.028 6.95 0 37.027-2.504 84.04-33.77 2.925 8.73 7.91 16.512 15.93 22.746 3.968 3.058 8.308 5.394 12.815 7.36-19.78 18.327-46.785 37.503-77.355 42.765l-136.6.395c-11.855.027-21.453 9.652-21.453 21.52v107c0 .289.145.5.172.816-.012.277-.172.5-.172.805 0 11.895 9.625 21.52 21.508 21.52H396.9c38.82 0 42.66 22.418 42.898 28.918l-.004 131.71zm130.59-85.359v122.06H468.04c8.926-10.918 13.465-23.328 14.609-32.164.117-.938.172-1.86.172-2.797v-133.44c0-20.02-15.43-71.973-85.938-71.973h-52.391v-65.656l116.89-.316c1.066 0 2.148-.078 3.242-.266 76.285-11.895 131-84.477 140.07-97.215 10.13-10.047 24.383-33.074 50.31-78.078v314.6c0 17.434 6.804 33.23 17.671 45.258h-102.29zm263.61-129.12v129.12h-61.094c10.867-12.027 17.672-27.812 17.672-45.285l-.305-217.96 79.066.066c.028.278.028.489.028.645-.133.898-.2 1.805-.2 2.73v92.781c0 1.993.278 3.997.832 5.883 2.637 9.324 8.704 21.707 18.594 32.02zm233.2-512.84-42.66 114.59c-1.2 2.52-12.527 24.75-43.926 24.75l-138.29.41c-11.867.055-21.469 9.664-21.469 21.535v106.97c0 11.895 9.613 21.535 21.52 21.535 1.133 0 73.887 1.61 73.887 1.61 38.848 0 42.672 22.418 42.922 28.934v151.03c-1.371 6.171-6.5 17.828-25.688 17.828-12.633 0-19.109-12.645-21.258-17.895V639.9c.46-5.778.516-21.324-10.09-33.707-5.207-6.079-14.781-13.41-31.477-13.86h-101.92a21.517 21.517 0 0 0-15.242 6.317 21.604 21.604 0 0 0-6.266 15.242l.305 239.54c0 13.66-11.102 24.777-24.766 24.777-13.609 0-24.688-11.117-24.688-24.777v-390.33c0-11.895-9.824-19.504-21.547-21.52-12.738-2.188-19.82 11.289-20.73 12.41-5.8 7.32-15.414 23.922-31.887 52.629-14.504 25.305-41.512 72.383-49.133 79.531-8.73 7.004-19.465 4.934-24.238 1.172-6.805-5.3-8.758-29.973 54.566-135.9 7.898-13.238 14.492-24.355 18.223-31.832 15.258-30.672 43.848-61.926 69.242-76.352 10.617 5.34 21.625 9.996 33.453 13.066 1.805.488 3.586.687 5.395.687 9.585 0 18.289-6.433 20.809-16.113 2.98-11.5-3.903-23.25-15.43-26.23-26.441-6.843-48.633-22.195-65.051-42.21 10.047 7.847 29.145 16.995 51.68 16.995 15.586 0 32.863-4.363 49.887-16.602 9.652-6.922 11.867-20.359 4.957-30.027-6.922-9.64-20.348-11.906-30.055-4.933-25.16 18.094-47.672 2.414-50.293.449-9.336-7.2-22.723-5.566-30.055 3.73-5.274 6.711-5.778 15.574-2.23 22.785-14.48-20.676-23.09-45.586-23.09-72.238 0-69.52 56.546-126.07 126.08-126.07 69.534 0 126.05 56.547 126.05 126.07 0 49.793-30.079 93.52-74.864 115.21-16.18 7.848-12.75 26.27-12.75 27.664 0 11.895 9.613 21.508 21.52 21.508h114.66c19.57 0 56.375-10.59 70.047-50.254 9.98-28.957 17.5-48.105 20.902-56.559 4.523-3.058 13.227-7.636 21.508-5.207 6.648 1.91 9.945 7.727 11.477 11.734zm-.688-160.84V57.889l43.306 19.004z"/>
</svg>