<svg width="60px" height="60px" viewBox="-5 -5 101 101" fill="currentColor" aria-hidden="true">
	<path d="M10.59 83.82a2.14 2.14 0 0 0 3.85-1.22c.12-4.02.7-11.18 1.75-13.28a13.63 13.63 0 0 1 5.05-5.46c1 .5 2.04.92 3.16 1.2a2.14 2.14 0 0 0 1.08-4.15 11.25 11.25 0 1 1 7.4-.6 2.14 2.14 0 1 0 1.74 3.92c.29-.13.55-.3.83-.44a13.63 13.63 0 0 1 5.17 5.53c1 2.01 2.04 11.64 2.45 17.83a2.14 2.14 0 1 0 4.28-.29c-.18-2.63-1.15-15.94-2.9-19.45a18.01 18.01 0 0 0-5.28-6.32 15.53 15.53 0 0 0 4.68-11.07c0-8.56-6.97-15.54-15.54-15.54a15.56 15.56 0 0 0-10.8 26.71 17.94 17.94 0 0 0-5.16 6.22c-.97 1.95-1.52 5.83-1.83 9.18L6.1 70.67a2.14 2.14 0 0 0-3.43 2.57l7.92 10.58z"/><path d="M30.09 56.2c1.45 0 3.05-.4 4.64-1.53a2.14 2.14 0 0 0-2.5-3.48 3.65 3.65 0 0 1-4.35.04 2.14 2.14 0 0 0-2.63 3.38c.94.74 2.73 1.6 4.84 1.6zm-1.38-9.07a2.38 2.38 0 1 0-4.75 0 2.38 2.38 0 0 0 4.75 0zm7.38 0a2.38 2.38 0 1 0-4.76 0 2.38 2.38 0 0 0 4.76 0zM17.8 76.3v12.47a2.14 2.14 0 0 0 4.29 0V76.3a2.14 2.14 0 0 0-4.28 0zm18.94 14.62c1.18 0 2.14-.96 2.14-2.15v-15.9a2.14 2.14 0 1 0-4.29 0v15.9c0 1.19.96 2.15 2.15 2.15zm47.4-3.76a2.14 2.14 0 1 0 4.28-.31c-.2-2.63-1.24-15.94-2.99-19.44a18.03 18.03 0 0 0-5.29-6.32 15.52 15.52 0 0 0 4.69-11.07c0-8.56-6.97-15.54-15.54-15.54a15.56 15.56 0 0 0-10.8 26.72 17.93 17.93 0 0 0-5.16 6.21c-1.77 3.55-2.2 17.1-2.27 19.78a2.14 2.14 0 0 0 2.1 2.19h.05c1.16 0 2.1-.92 2.14-2.09.15-6.27.82-15.99 1.82-17.97a13.63 13.63 0 0 1 5.05-5.46c.99.5 2.04.92 3.15 1.2.18.05.36.08.54.08a2.14 2.14 0 0 0 .54-4.22 11.25 11.25 0 1 1 7.41-.6 2.14 2.14 0 0 0 1.74 3.9c.29-.12.55-.29.82-.43a13.65 13.65 0 0 1 5.18 5.53c1 2.02 2.09 11.65 2.54 17.84z"/><path d="M67.64 56.2c1.45 0 3.05-.4 4.63-1.53a2.14 2.14 0 1 0-2.5-3.48 3.65 3.65 0 0 1-4.34.04 2.14 2.14 0 0 0-2.63 3.38c.93.74 2.72 1.6 4.84 1.6zm-1.37-9.07a2.38 2.38 0 1 0-4.76 0 2.38 2.38 0 0 0 4.76 0zm7.37 0a2.38 2.38 0 1 0-4.76 0 2.38 2.38 0 0 0 4.76 0zM63.06 88.77v-15.9a2.14 2.14 0 1 0-4.28 0v15.9a2.14 2.14 0 0 0 4.28 0zm14.65-18.04c-1.18 0-2.14.96-2.14 2.14v15.9a2.14 2.14 0 1 0 4.28 0v-15.9c0-1.18-.95-2.14-2.14-2.14zM64.08 21.29c0-1.19-.96-2.14-2.14-2.14H32.28c-.82 0-1.57.46-1.93 1.2l-3.93 8.06a2.14 2.14 0 0 0 3.86 1.88l3.34-6.86h28.32c1.18 0 2.14-.96 2.14-2.14z"/><path d="M14.73 23.43h8.42a2.14 2.14 0 0 0 0-4.28h-8.42A2.15 2.15 0 0 1 12.59 17V6.51c0-1.18.96-2.14 2.14-2.14h67.04c1.18 0 2.15.96 2.15 2.14v10.5c0 1.17-.97 2.14-2.15 2.14H71.5c-.82 0-1.58.47-1.93 1.2l-3.89 8.07a2.14 2.14 0 0 0 3.86 1.86l3.3-6.85h8.93A6.44 6.44 0 0 0 88.2 17V6.51A6.43 6.43 0 0 0 81.77.1H14.73A6.43 6.43 0 0 0 8.3 6.5V17a6.43 6.43 0 0 0 6.43 6.42z"/><path d="M45.08 11.09c0-1.18-.96-2.14-2.14-2.14H21.2a2.14 2.14 0 1 0 0 4.28h21.74c1.18 0 2.14-.96 2.14-2.14zM55.3 8.95a2.14 2.14 0 0 0 0 4.28H57a2.14 2.14 0 1 0 0-4.28h-1.7zm14.53 2.14c0-1.18-.96-2.14-2.14-2.14h-3.05a2.14 2.14 0 0 0 0 4.28h3.05c1.18 0 2.14-.96 2.14-2.14zm7.2 2.14a2.14 2.14 0 1 0 0-4.28h-1.71a2.14 2.14 0 1 0 0 4.28h1.71z"/>
</svg>