<svg width="60px" height="60px" viewBox="0 0 91 91" fill="currentColor" aria-hidden="true">
	<path d="M22.8 57.07a2.1 2.1 0 0 0 2.6-1.44l1.25-4.33 1.27 4.33a2.1 2.1 0 0 0 4.03-1.18l-1.7-5.78 1.6-2.51a2.1 2.1 0 1 0-3.56-2.25l-1.47 2.33h-.36l-1.48-2.33a2.1 2.1 0 1 0-3.54 2.25l1.6 2.51-1.68 5.8a2.1 2.1 0 0 0 1.44 2.6zM18.23 40.9c-1.03.31-6.23 2.04-7.32 5.7-.9 3.02-.91 6.8-.91 6.96a2.1 2.1 0 1 0 4.2 0c0-.91.13-3.73.74-5.76.31-1.07 2.86-2.38 4.5-2.88a2.1 2.1 0 0 0-1.21-4.02zm20.17 6.9c.64 2.14.74 4.16.74 4.18.06 1.12.98 2 2.1 2h.1a2.1 2.1 0 0 0 2-2.19c0-.1-.12-2.54-.91-5.2-1.1-3.65-6.3-5.38-7.32-5.69a2.1 2.1 0 0 0-1.2 4.02c1.63.5 4.17 1.8 4.5 2.88z"/><path d="M34.98 49.09a2.1 2.1 0 1 0 0 4.2h.67a2.1 2.1 0 1 0 0-4.2h-.67zm-12.41-8.12a6.49 6.49 0 0 0 4.02 1.48c1.29 0 2.26-.44 3.05-.88a9.96 9.96 0 0 0 4.25-4.42 13 13 0 0 0 1.14-5.53v-.45a6.94 6.94 0 0 0-1.35-3.7 8.63 8.63 0 0 0-6.79-3.53h-.32a8.64 8.64 0 0 0-7.2 3.81 6.78 6.78 0 0 0-1.15 3.57c-.01.73.03 1.47.12 2.2.15 1.26.44 2.38.87 3.42a9.84 9.84 0 0 0 3.36 4.03zm.32-10.92a4.1 4.1 0 0 1 1.86-1.53 4.43 4.43 0 0 1 1.82-.38h.2a4.47 4.47 0 0 1 3.5 1.78c.35.5.53.98.56 1.64v.17c0 1.37-.25 2.57-.75 3.65a5.76 5.76 0 0 1-2.48 2.52c-.73.4-.91.38-1.3.33s-.61-.18-1.25-.65a5.76 5.76 0 0 1-1.96-2.26 10.5 10.5 0 0 1-.67-3.9c.01-.46.17-.9.47-1.37zm41.51-.44H48.95a2.1 2.1 0 0 0 0 4.2h15.47a2.1 2.1 0 0 0 0-4.2zm9.76 4.2a2.1 2.1 0 0 0 0-4.2h-3.24a2.1 2.1 0 0 0 0 4.2h3.24zm-25.21 8.28h4.66a2.1 2.1 0 1 0 0-4.2h-4.67a2.1 2.1 0 1 0 0 4.2zm10.45-2.1c0 1.16.94 2.1 2.1 2.1h16.8a2.1 2.1 0 0 0 0-4.2H61.5a2.1 2.1 0 0 0-2.1 2.1zm8.68 9a2.1 2.1 0 0 0-2.1-2.1H49.36a2.1 2.1 0 0 0 0 4.2h16.62a2.1 2.1 0 0 0 2.1-2.1zm8.72-2.1h-4.26a2.1 2.1 0 0 0 0 4.2h4.27a2.1 2.1 0 0 0 0-4.2z"/><path d="M90.62 63.9v-53a2.1 2.1 0 0 0-2.1-2.1h-26.2a2.1 2.1 0 0 0 0 4.2h24.1v50.9c0 3.94-3.2 7.15-7.15 7.15H67.66a2.1 2.1 0 0 0 0 4.2h11.61c6.26 0 11.35-5.1 11.35-11.35z"/><path d="M.29 10.9v62.24c0 1.16.94 2.1 2.1 2.1h21.13a2.1 2.1 0 0 0 0-4.2H4.49V13h30.59v3.18H31.7a2.1 2.1 0 1 0 0 4.2h27.5a2.1 2.1 0 1 0 0-4.2h-3.37V2.75a2.1 2.1 0 0 0-2.1-2.1H37.18a2.1 2.1 0 0 0-2.1 2.1V8.8H2.39a2.1 2.1 0 0 0-2.1 2.1zm39-6.05h12.34v11.32H39.28V4.84z"/><path d="M45.45 90.86a17.73 17.73 0 0 0 14.48-27.9l2.66-2.8a2.1 2.1 0 0 0-3.05-2.9L45.5 72.04 42 68.23a2.1 2.1 0 0 0-3.1 2.83l4.99 5.48c.4.43.94.67 1.53.68h.02a2.1 2.1 0 0 0 1.52-.65l9.99-10.5a13.53 13.53 0 0 1-11.51 20.59 13.52 13.52 0 0 1 0-27.03c1.01 0 3.15.2 4.4.54a2.1 2.1 0 0 0 1.12-4.05c-1.7-.47-4.25-.69-5.51-.69a17.72 17.72 0 0 0 0 35.42z"/>
</svg>