<svg width="60px" height="60px" viewBox="-10 -10 111 111" fill="currentColor" aria-hidden="true">
	<path d="M39.02 61.01a2.51 2.51 0 0 0-2.52-2.51H10.96a2.51 2.51 0 1 0 0 5.02H36.5a2.51 2.51 0 0 0 2.52-2.51z"/><path d="M88.14 18.06H17.65a2.51 2.51 0 0 0-2.5 2.52v13.85h-4.79a2.51 2.51 0 1 0 0 5.02h8.54a2.51 2.51 0 0 0 1.27-4.67V25.9L51.3 51.55a2.51 2.51 0 0 0 3.2 0L85.63 25.9v39.46a4.12 4.12 0 0 1-4.11 4.11H20.17v-2.35a2.51 2.51 0 1 0-5.03 0v4.87a2.51 2.51 0 0 0 2.52 2.51h63.86c5.03 0 9.13-4.1 9.13-9.14V20.58a2.51 2.51 0 0 0-2.51-2.52zM52.9 46.36 24.65 23.08h56.48L52.9 46.35z"/><path d="M15.14 53.3a2.51 2.51 0 1 0 5.03 0v-4.6h8.21a2.51 2.51 0 1 0 0-5.03H3.17a2.51 2.51 0 1 0 0 5.02h11.97v4.61z"/>
</svg>