<svg width="60px" height="60px" viewBox="-5 -5 101 101" fill="currentColor" aria-hidden="true">
	<path d="M85.907,12.865c-0.133-1.125-1.148-1.917-2.276-1.796c-2.038,0.238-4.096,0.361-6.115,0.361   C58.7,11.43,47.012,0.958,46.898,0.853c0,0-0.607-0.645-1.388-0.645c-0.782,0-1.384,0.641-1.384,0.641   c-0.118,0.106-11.81,10.579-30.622,10.581c-0.002,0-0.002,0-0.002,0c-2.019,0-4.076-0.123-6.114-0.361   c-1.115-0.12-2.141,0.671-2.275,1.796c-0.077,0.639-7.052,64.144,39.82,77.897c0.186,0.054,0.379,0.082,0.572,0.082l0.002,0.002   h0.003c0.194,0,0.388-0.028,0.576-0.084C92.954,77.009,85.983,13.504,85.907,12.865z M47.559,85.943V75.029   c0-1.134-0.917-2.051-2.051-2.051c-1.131,0-2.05,0.917-2.05,2.051v10.914C7.168,73.075,8.308,25.707,9.017,15.351   c1.502,0.118,3.004,0.18,4.486,0.18c0,0,0,0,0.002,0c14.47-0.002,24.894-5.582,29.953-9.024v6.837c0,1.131,0.919,2.05,2.05,2.05   c1.134,0,2.051-0.919,2.051-2.05V6.505c5.06,3.444,15.482,9.026,29.957,9.026c1.483,0,2.986-0.062,4.488-0.18   C82.713,25.707,83.849,73.079,47.559,85.943z"/><path d="M50.387,41.801c-0.659-0.918-1.938-1.132-2.862-0.471c-2.309,1.654-4.377,0.222-4.622,0.042   c-0.887-0.685-2.167-0.529-2.861,0.356c-0.701,0.891-0.547,2.179,0.344,2.88c0.939,0.739,2.737,1.608,4.865,1.608   c1.458,0,3.072-0.41,4.666-1.554C50.835,44.003,51.048,42.722,50.387,41.801z"/><path d="M41.409,39.341c1.266,0,2.295-1.025,2.295-2.289c0-1.266-1.03-2.296-2.295-2.296s-2.295,1.031-2.295,2.296   C39.114,38.315,40.143,39.341,41.409,39.341z"/><path d="M48.968,39.341c1.258,0,2.282-1.025,2.282-2.289c0-1.266-1.024-2.296-2.282-2.296c-1.266,0-2.299,1.031-2.299,2.296   C46.669,38.315,47.702,39.341,48.968,39.341z"/><path d="M45.508,17.372c-14.647,0-26.565,11.917-26.565,26.562c0,14.651,11.918,26.572,26.565,26.572   c14.65,0,26.568-11.921,26.568-26.572C72.076,29.288,60.158,17.372,45.508,17.372z M45.321,65.391l-1.562-1.364l1.64-4.001   L46.923,64L45.321,65.391z M51.104,65.67c0.323-0.532,0.396-1.193,0.162-1.796l-3.887-10.149c-0.301-0.787-1.05-1.311-1.891-1.318   c-0.008,0-0.017,0-0.024,0c-0.831,0-1.583,0.503-1.898,1.273L39.41,63.83c-0.236,0.576-0.182,1.208,0.098,1.735   c-2.93-0.814-5.622-2.199-7.94-4.044c0.032-0.078,0.079-0.143,0.104-0.225c1.336-4.653,3.583-5.995,6.199-7.327   c0.482,0.251,0.963,0.515,1.479,0.721c0.249,0.098,0.505,0.146,0.757,0.146c0.817,0,1.586-0.49,1.906-1.294   c0.419-1.054-0.096-2.244-1.147-2.663c-4.472-1.779-7.36-6.041-7.36-10.857c0-6.443,5.239-11.682,11.681-11.682   c6.438,0,11.673,5.239,11.673,11.682c0,4.612-2.72,8.804-6.931,10.676c-1.035,0.461-1.503,1.673-1.042,2.708   c0.459,1.034,1.668,1.502,2.708,1.04c0.332-0.149,0.632-0.342,0.953-0.509c3.524,1.634,6.063,4.896,6.792,7.481   c0.017,0.05,0.049,0.088,0.064,0.137C56.99,63.466,54.174,64.88,51.104,65.67z M62.602,58.479c-1.29-2.814-3.631-5.424-6.409-7.206   c2.977-2.921,4.77-6.935,4.77-11.251c0-8.704-7.076-15.783-15.775-15.783c-8.703,0-15.782,7.079-15.782,15.783   c0,4.374,1.794,8.381,4.782,11.288c-2.157,1.304-4.362,3.244-5.852,7.081c-3.297-3.912-5.291-8.954-5.291-14.457   c0-12.385,10.078-22.461,22.464-22.461c12.39,0,22.467,10.076,22.467,22.461C67.975,49.48,65.944,54.556,62.602,58.479z"/>
</svg>