<svg width="60px" height="60px" viewBox="-10 -10 111 111" fill="currentColor" aria-hidden="true">
	<path d="M62.15.12H16.27a2.1 2.1 0 0 0-2.1 2.1v29.7L1.33 39.03l-.02.02-.05.02a2.1 2.1 0 0 0-1.01 1.8v47.87s.1 2.1 2.1 2.1h78.11c5.62 0 10.2-4.32 10.2-9.63V40.88a2.1 2.1 0 0 0-1.02-1.8l-.05-.02-.02-.02-12.84-7.13V14.18c0-.88-.65-1.51-.65-1.51L63.6.7c-.48-.46-1.45-.58-1.45-.58zm-3.4 58.62 27.7-14.4v36.88c0 .94-.27 1.83-.74 2.6L58.75 58.75zm-54.3-14.4 27.3 14.2-27.3 25.4v-39.6zm79.67-3.52-7.4 3.84v-7.94l7.4 4.1zM69.4 12.08h-3.24a1.9 1.9 0 0 1-1.91-1.9V7.14l1.5 1.44 3.65 3.5zm-9.35-7.76v5.86c0 3.36 2.74 6.1 6.1 6.1h6.38V46.84L45.45 60.92 18.37 46.84V4.32h41.68zm-45.87 32.4v7.94L6.8 40.83l-.01-.02 7.39-4.1zM7.69 86.65 35.7 60.6l8.78 4.56c.6.32 1.33.32 1.94 0l8.37-4.35 27.5 25.59c-.57.17-1.19.26-1.83.26H7.7z"/><path d="M31.6 25.03h16.09a2.1 2.1 0 1 0 0-4.2h-16.1a2.1 2.1 0 0 0 0 4.2zM54.47 25.03h3.37a2.1 2.1 0 1 0 0-4.2h-3.37a2.1 2.1 0 1 0 0 4.2zM31.6 33.2h4.86a2.1 2.1 0 0 0 0-4.2H31.6a2.1 2.1 0 0 0 0 4.2zM42.57 31.1c0 1.17.94 2.1 2.1 2.1h17.48a2.1 2.1 0 1 0 0-4.2H44.67a2.1 2.1 0 0 0-2.1 2.1zM49.32 37.9H32.03a2.1 2.1 0 0 0 0 4.2h17.3a2.1 2.1 0 0 0 0-4.2zM60.6 37.9h-4.45a2.1 2.1 0 0 0 0 4.2h4.44a2.1 2.1 0 0 0 0-4.2z"/>
</svg>
