<svg height="60px" width="60px" viewBox="0 0 91 91" fill="currentColor" aria-hidden="true">
	<path d="M61.289,62.738H51.32c-0.928,0-1.68,0.752-1.68,1.68c0,0.93,0.752,1.68,1.68,1.68h9.969c0.929,0,1.68-0.75,1.68-1.68   C62.969,63.49,62.218,62.738,61.289,62.738z"/><path d="M40.038,75.67v6.768v6.793c0,0.93,0.751,1.682,1.681,1.682h7.064c0.928,0,1.68-0.752,1.68-1.682v-5.113h29.67v5.113   c0,0.93,0.752,1.682,1.681,1.682h7.062c0.928,0,1.68-0.752,1.68-1.682v-6.793V75.67c0-0.928-0.752-1.68-1.68-1.68H41.719   C40.789,73.99,40.038,74.742,40.038,75.67z M87.194,87.551h-3.701v-3.434h3.701V87.551z M43.398,77.35h43.796v3.408h-5.381h-33.03   h-5.385V77.35z M43.398,84.117h3.704v3.434h-3.704V84.117z"/><path d="M18.264,56.113c0.32,0.357,0.775,0.563,1.256,0.563h0.001c0.479,0,0.937-0.207,1.255-0.564l3.688-4.156   c0.411-0.465,0.534-1.117,0.317-1.699l-3.586-9.688c-0.24-0.654-0.861-1.091-1.559-1.098c-0.005,0-0.012,0-0.016,0   c-0.691,0-1.312,0.423-1.564,1.066l-3.803,9.688c-0.23,0.59-0.111,1.26,0.309,1.732L18.264,56.113z M19.574,45.866l1.709,4.612   l-1.766,1.99l-1.76-1.977L19.574,45.866z"/><path d="M26.228,28.561c0.753-0.541,0.927-1.589,0.386-2.344c-0.542-0.753-1.59-0.927-2.345-0.386   c-2.489,1.785-4.698,0.228-4.952,0.036c-0.73-0.564-1.777-0.436-2.349,0.291c-0.573,0.729-0.448,1.785,0.282,2.359   c0.883,0.694,2.574,1.511,4.574,1.511C23.2,30.027,24.723,29.64,26.228,28.561z"/><path d="M18.047,23.258c1.061,0,1.922-0.86,1.922-1.915c0-1.058-0.861-1.919-1.922-1.919c-1.057,0-1.916,0.861-1.916,1.919   C16.131,22.398,16.99,23.258,18.047,23.258z"/><path d="M25.48,23.258c1.059,0,1.92-0.86,1.92-1.915c0-1.058-0.861-1.919-1.92-1.919c-1.055,0-1.912,0.861-1.912,1.919   C23.568,22.398,24.426,23.258,25.48,23.258z"/><path d="M3.699,67.18c0.163,0.033,0.41,0.068,0.716,0.068c1.112,0,2.976-0.48,4.187-3.35c0.211-0.498,0.424-1.303,0.689-2.436V83.9   c0,3.311,2.689,6.002,5.993,6.002c1.693,0,3.22-0.713,4.31-1.848c1.092,1.135,2.617,1.848,4.311,1.848   c3.306,0,5.996-2.691,5.996-6.002l0.012-37.035l4.538-0.029c5.371,0,7.933-5.913,8.017-6.111l3.632-7.837v8.633h-0.56   c-0.929,0-1.68,0.751-1.68,1.68v27.909c0,0.928,0.751,1.68,1.68,1.68h35.039c3.395,0,6.157-2.764,6.157-6.162V43.2   c0-0.929-0.751-1.68-1.681-1.68H83.91c0.362-0.747,0.584-1.572,0.584-2.456V16.615c0-0.928-0.752-1.68-1.68-1.68H69.847h-9.479   H47.778c-0.929,0-1.68,0.751-1.68,1.68v6.418c-0.604-0.361-1.3-0.569-2.072-0.569c-0.001,0-0.003,0-0.005,0   c-3.281,0.01-4.9,1.895-5.402,3.133l-4.506,7.939c-0.051,0.09-0.093,0.184-0.126,0.282c-0.698,2.033-2.749,2.136-2.964,2.141   h-1.486c3.223-2.836,5.168-6.964,5.168-11.404c0-8.377-6.816-15.192-15.193-15.192S4.32,16.179,4.32,24.556   c0,4.489,1.972,8.602,5.176,11.418c-2.861,2.041-5.281,5.181-6.559,7.742c-1.748,3.514-2.492,9.404-2.492,19.697   C0.445,65.156,1.874,66.811,3.699,67.18z M62.047,18.295h6.119v7.319l-2.51-1.542c-0.271-0.167-0.574-0.25-0.879-0.25   c-0.34,0-0.68,0.103-0.97,0.308l-1.761,1.244V18.295z M49.459,18.295h9.229v10.323c0,0.628,0.35,1.203,0.906,1.491   c0.243,0.126,0.51,0.189,0.773,0.189c0.342,0,0.681-0.104,0.97-0.309l3.504-2.476l4.126,2.535c0.52,0.318,1.168,0.333,1.7,0.036   c0.53-0.297,0.859-0.858,0.859-1.467V18.295h9.608v20.769c0,1.263-1.025,2.291-2.287,2.291H49.459V18.295z M68.748,44.88v8.854   l-3.157-1.939c-0.271-0.166-0.574-0.248-0.88-0.248c-0.339,0-0.679,0.104-0.969,0.309l-2.323,1.641V44.88H68.748z M47.219,44.88   h10.84v11.858c0,0.629,0.35,1.203,0.907,1.492c0.243,0.125,0.509,0.188,0.772,0.188c0.342,0,0.682-0.104,0.971-0.309l4.066-2.871   l4.772,2.932c0.519,0.32,1.169,0.332,1.7,0.035c0.529-0.297,0.859-0.857,0.859-1.467V44.88h11.268v21.747   c0,1.545-1.255,2.803-2.797,2.803H47.219V44.88z M5.944,45.215c1.444-2.896,4.167-5.857,6.562-7.18   c0.995,0.517,2.055,0.94,3.178,1.23c0.141,0.038,0.283,0.054,0.423,0.054c0.747,0,1.427-0.502,1.624-1.258   c0.232-0.897-0.305-1.814-1.204-2.047C11.317,34.662,7.68,29.95,7.68,24.556c0-6.525,5.308-11.833,11.832-11.833   c6.525,0,11.832,5.308,11.832,11.833c0,4.677-2.758,8.923-7.025,10.816c0,0-1.121,0.689-1,2.058c0.158,1.785,1.684,1.89,1.684,1.89   h6.021c0.187,0,4.535-0.049,6.086-4.252l4.497-7.926c0.032-0.058,0.087-0.182,0.113-0.245c0.046-0.108,0.499-1.068,2.309-1.073   c0.001,0,0.001,0,0.003,0c0.326,0,0.427,0.106,0.516,0.234c0.344,0.492,0.33,1.433,0.271,1.608l-5.421,11.691   c-0.018,0.041-1.81,4.118-4.958,4.118l-6.218,0.041c-0.924,0.007-1.668,0.757-1.668,1.681L26.541,83.9   c0,1.457-1.184,2.643-2.637,2.643c-1.432,0-2.594-1.15-2.63-2.576c0-0.023,0.007-0.043,0.007-0.066V64.529   c0-0.93-0.752-1.682-1.68-1.682c-0.93,0-1.681,0.752-1.681,1.682v19.307c0,0.021-0.013,0.043-0.013,0.064   c0,0.023,0.006,0.043,0.006,0.066c-0.035,1.426-1.197,2.576-2.63,2.576c-1.452,0-2.633-1.186-2.633-2.643V49.824   c0-0.738-0.481-1.346-1.142-1.572c-0.027-0.016-0.043-0.039-0.07-0.053c-0.839-0.398-1.844-0.035-2.236,0.803   c-1.092,2.313-1.987,6.354-2.707,9.6c-0.379,1.705-0.77,3.467-0.992,3.99c-0.392,0.934-0.797,1.363-1.1,1.301   c-0.283-0.029-0.571-0.352-0.6-0.479C3.805,53.803,4.465,48.191,5.944,45.215z"/><path d="M49.769,8.676c0.268,0.646,0.893,1.037,1.552,1.037c0.215,0,0.434-0.041,0.644-0.128c0.856-0.354,1.263-1.337,0.909-2.195   l-2.539-6.133c-0.354-0.856-1.34-1.261-2.194-0.909c-0.856,0.354-1.264,1.337-0.909,2.195L49.769,8.676z"/><path d="M60.805,12.197c0.163,0.047,0.325,0.07,0.484,0.07c0.724,0,1.39-0.469,1.609-1.196L65.42,2.68   c0.266-0.889-0.238-1.826-1.125-2.093c-0.904-0.268-1.826,0.238-2.094,1.125l-2.521,8.392   C59.414,10.993,59.918,11.93,60.805,12.197z"/><path d="M40.689,11.917c0.307,0.236,0.668,0.351,1.027,0.351c0.502,0,0.999-0.223,1.33-0.651c0.568-0.733,0.434-1.788-0.301-2.357   l-3.299-2.554c-0.734-0.566-1.788-0.435-2.357,0.3c-0.567,0.733-0.434,1.789,0.301,2.358L40.689,11.917z"/>
</svg>
