<svg width="60px" height="60px" viewBox="0 0 91 91" fill="currentColor" aria-hidden="true">
	<path d="M45.38 4.39c1.05 0 3.3.2 4.6.56A2.1 2.1 0 1 0 51.13.9C49.34.4 46.69.18 45.38.18c-10.16 0-18.43 8.27-18.43 18.43s8.27 18.42 18.43 18.42A18.45 18.45 0 0 0 60.4 7.93l2.83-2.97a2.1 2.1 0 1 0-3.05-2.9L45.4 17.58l-3.7-4.06a2.1 2.1 0 0 0-3.1 2.83l5.21 5.73c.4.44.95.69 1.53.7h.03a2.1 2.1 0 0 0 1.52-.66l10.5-11.04a14.1 14.1 0 0 1 2.2 7.53c0 7.83-6.38 14.21-14.22 14.21s-14.22-6.38-14.22-14.21S37.54 4.39 45.38 4.39z"/><path d="M86.84 77.47v-53.6a2.1 2.1 0 0 0-2.1-2.1H68.1a2.1 2.1 0 0 0 0 4.2h14.52v51.28H8.13V25.98H23.3a2.1 2.1 0 1 0 0-4.21H6.03a2.1 2.1 0 0 0-2.1 2.1v53.6A5.4 5.4 0 0 0 0 82.75v2.58a5.42 5.42 0 0 0 5.4 5.5h79.97c3.04 0 5.51-2.46 5.51-5.5v-2.58a5.5 5.5 0 0 0-4.04-5.28zm-.17 7.86c0 .72-.58 1.3-1.3 1.3H5.4a1.3 1.3 0 0 1-1.3-1.3v-2.58c0-.71.58-1.3 1.3-1.3h29.32a2.1 2.1 0 0 0 2.08 2.02h16.85a2.1 2.1 0 0 0 2.08-2.02h29.66c.71 0 1.3.59 1.3 1.3v2.58z"/><path d="M12.38 28.84a2.1 2.1 0 0 0-2.11 2.1v41.42c0 1.16.94 2.1 2.1 2.1h66.37a2.1 2.1 0 0 0 2.1-2.1V30.94a2.1 2.1 0 0 0-2.1-2.1h-14.2a2.1 2.1 0 0 0 0 4.2h12.1v37.22H14.48V33.04h11.97a2.1 2.1 0 1 0 0-4.2H12.38z"/><path d="M55.23 50.44a2.1 2.1 0 0 0 0-2.98l-8.37-8.36a2.1 2.1 0 0 0-2.97 0l-8.36 8.36a2.1 2.1 0 0 0 1.49 3.6c.54 0 1.08-.21 1.49-.62l6.87-6.87 6.87 6.87a2.1 2.1 0 0 0 2.98 0z"/><path d="M47.49 48.6a2.1 2.1 0 0 0-4.21 0v.27a2.1 2.1 0 1 0 4.2 0v-.27zM47.49 55.6a2.1 2.1 0 0 0-4.21 0v.28a2.1 2.1 0 1 0 4.2 0v-.28zM45.38 60.5a2.1 2.1 0 0 0-2.1 2.11v.28a2.1 2.1 0 1 0 4.2 0v-.28a2.1 2.1 0 0 0-2.1-2.1z"/>
</svg>