<svg width="60px" height="60px" viewBox="0 0 1200 1200" fill="currentColor" aria-hidden="true">
	<path d="m278.93 1009h557.59c53.312 0 96.699-43.371 96.699-96.699l0.003906-592.73h-80.492v-98.426c0-6.832-3.0977-13.277-8.4531-17.523-5.3281-4.2578-12.277-5.8555-18.961-4.3242l-526.51 120.27h-19.871v22.273c0 0.054687-0.027344 0.09375-0.027344 0.14453v644.61c0 0.09375 0.027344 0.17188 0.027344 0.26562zm44.852-44.852v-599.77l484.11 0.011719v547.9c0 28.602-23.289 51.863-51.902 51.863zm564.61-599.76v547.9c0 28.246-22.707 51.191-50.82 51.758 9.5469-14.992 15.152-32.703 15.152-51.758l-0.003906-547.9zm-80.492-115.15v70.312l-307.77-0.011719z"/>
	<path d="m565.24 490.39c-115.7 0-209.84 94.113-209.84 209.8s94.141 209.8 209.84 209.8c115.69 0 209.82-94.113 209.82-209.8s-94.113-209.8-209.82-209.8zm-2.3047 44.953c10.129 15.707 18.699 33.641 25.438 53.301-8.4805 0.56641-16.996 0.96094-25.648 0.96094-9.1797 0-18.25-0.43359-27.23-1.082 6.7109-19.57 15.258-37.426 25.359-53.078 0.68359-0.007812 1.3828-0.085937 2.082-0.10156zm55.938 9.0078c18.949 6.5391 36.395 16.285 51.52 28.828-11.867 3.9023-24.25 7.0664-37.004 9.6016-4.1797-13.375-8.9375-26.297-14.516-38.43zm-100.56 133.4c0.92188-15.414 2.8477-30.5 5.6172-45.125 12.75 1.1875 25.699 1.832 38.797 1.832 12.555 0 24.949-0.66016 37.172-1.7422 2.7422 14.586 4.6562 29.656 5.5781 45.031zm87.137 44.848c-0.9375 15.863-2.9141 31.332-5.7773 46.285-12.16-1.0547-24.461-1.6992-36.949-1.6992-13.016 0-25.898 0.63281-38.586 1.8047-2.875-14.992-4.8672-30.5-5.8008-46.391zm-114.96-140.08c-10.879-2.2031-21.48-4.918-31.727-8.125 13.305-11.262 28.391-20.441 44.797-27.086-4.9727 11.172-9.2344 23.023-13.07 35.211zm-10.812 43.504c-3.125 16.828-5.2227 34.129-6.1836 51.746l-71.555-0.003906c3.3477-24.434 11.988-47.168 24.855-67.004 16.777 6.3438 34.484 11.438 52.883 15.262zm-6.1602 96.578c0.96094 18.078 3.1367 35.789 6.3711 52.984-18.238 3.7852-35.84 8.7812-52.469 15.059-13.227-20.059-22.062-43.172-25.477-68.031h71.574zm17.289 96.449c3.7578 11.828 8.043 23.234 12.91 34.09-16.023-6.4766-30.844-15.309-43.926-26.215 10.008-3.1016 20.375-5.7266 31.016-7.875zm45.098-5.9883c8.8633-0.63281 17.789-1.043 26.82-1.043 8.5195 0 16.906 0.37109 25.227 0.92188-6.6602 19.188-15.086 36.688-25.016 52.102-0.69922-0.027343-1.3711-0.10547-2.0586-0.11719-9.9258-15.336-18.312-32.77-24.973-51.863zm97.199 5.7227c12.449 2.4648 24.539 5.5391 36.172 9.3086-14.863 12.105-31.898 21.559-50.359 27.93 5.4062-11.785 10.074-24.273 14.188-37.238zm10.867-43.555c3.1914-17.09 5.3281-34.656 6.3164-52.629h78.25c-3.4961 25.504-12.66 49.215-26.441 69.641-18.34-7.1992-37.832-12.883-58.125-17.012zm6.3164-97.477c-0.9375-17.484-3.0195-34.695-6.1172-51.402 20.453-4.168 40.047-9.918 58.523-17.207 13.426 20.188 22.391 43.531 25.832 68.609z"/>
</svg>
