<svg width="60px" height="60px" fill="currentColor" viewBox="0 0 91 91" aria-hidden="true">
	<path d="M75.5 28.4c0-.1 0-.1-.1-.2-.1-.2-.2-.4-.3-.5L57.5 10.8c-.1-.1-.3-.2-.5-.3-.1 0-.1 0-.2-.1-.1 0-.3-.1-.4-.1H20.2c-.9 0-1.7.8-1.7 1.7v68.6c0 .9.8 1.7 1.7 1.7h47.3c4.5 0 8.2-3.7 8.2-8.2V28.8c-.1-.1-.1-.3-.2-.4zm-5.7-1.2H62c-2.2 0-4-1.8-4-4V16l11.8 11.2zm-2.3 51.7H21.9V13.7h32.8v9.5c0 4 3.3 7.3 7.3 7.3h10.3V74c0 2.8-2.2 4.9-4.8 4.9z"/><path d="M39 60.4c-.4-.3-.8-.6-1.4-.7-.5-.1-1.3-.2-2.2-.2h-3.2c-.6 0-1 .1-1.3.4-.3.3-.4.7-.4 1.3v9.3c0 .5.1 1 .4 1.2.3.3.6.4 1.1.4.4 0 .8-.2 1-.4.3-.3.4-.7.4-1.3v-3.2h2c1.6 0 2.7-.3 3.5-1 .8-.7 1.2-1.7 1.2-3 0-.6-.1-1.2-.3-1.6-.2-.4-.5-.8-.8-1.2zm-1.8 3c0 .4-.1.7-.3 1-.2.2-.4.4-.8.5-.3.1-.8.1-1.3.1h-1.4v-3.3h1.4c1 0 1.7.2 2 .5.3.3.4.7.4 1.2zM49.4 59.7c-.6-.2-1.3-.2-2.2-.2H44c-.6 0-1 .1-1.3.4s-.4.7-.4 1.3v8.9c0 .4 0 .7.1 1 .1.3.3.5.5.7.3.2.7.2 1.1.2h3.2c.6 0 1.1 0 1.5-.1.5-.1.9-.2 1.3-.4s.8-.4 1.1-.7c.4-.4.8-.8 1.1-1.3.3-.5.5-1.1.6-1.7.1-.6.2-1.3.2-2 0-2.3-.7-4-2-5.1-.4-.5-1-.8-1.6-1zm.8 6c0 1.6-.4 2.8-1.2 3.4-.2.1-.4.3-.6.3-.2.1-.5.1-.7.2h-2.6v-7.8h1.4c.7 0 1.4.1 1.9.2s.9.5 1.2 1c.4.7.6 1.6.6 2.7zM62.8 59.5H57a2 2 0 0 0-.9.2c-.3.1-.5.3-.6.6-.1.3-.2.6-.2 1v9.3c0 .6.1 1 .4 1.3.3.3.6.4 1 .4s.8-.1 1-.4c.3-.3.4-.7.4-1.3v-3.8H62c.4 0 .7-.1 1-.3.2-.2.4-.5.4-.8s-.2-.7-.4-.9c-.2-.2-.6-.3-1-.3h-3.8v-2.7h4.6c.4 0 .8-.1 1-.3.2-.2.4-.5.4-.8 0-.3-.1-.6-.4-.8-.2-.3-.6-.4-1-.4zM60 44.2c.7-.1 1.5-.5 1.9-1.2.4-.6.6-1.2.4-1.9-.1-.5-.6-1.8-2.6-2.2-.7-.1-2.5 0-5 .3-2.2-1.8-4.2-4.9-5.7-8 .5-2.2.8-4.3 1-6.2.1-1.4-.1-2.5-.6-3.5-.8-1.6-2.6-2.4-4.1-2-1.3.4-2.3 1.6-2.5 3.2-.1 1.1.2 2.2.4 2.9.3 1 1.1 3.3 2.2 5.9-.9 3.6-2.2 7.3-3.7 10.2-3.2.9-6 2-7.7 3.2-1.7 1.2-2.1 2.5-2.2 3.4-.1 1.2.4 2.1.8 2.6.5.5 1.3.8 2.1.9h.1c1.8 0 3.9-1.1 6.2-3.4 1-1 2-2.3 2.9-3.9 3.3-.8 6.9-1.5 9.7-1.9 2 1.3 4.1 1.9 6.4 1.6zm-24.7 4.3c.1-.2.3-.5.7-.8.6-.5 1.4-.9 2.4-1.3-1.5 1.5-2.6 1.9-3.1 2.1zm10.8-25.4c0-.1 0-.2.1-.2s.1.1.2.2c.2.4.3.9.2 1.6v.4c0-.2-.1-.3-.1-.5-.3-.5-.4-1.1-.4-1.5zm-.2 17.6c.6-1.5 1.2-3.1 1.7-4.8.8 1.4 1.8 2.7 2.8 3.9-1.4.3-2.9.6-4.5.9z"/>
</svg>