<svg width="60px" height="60px" viewBox="0 0 91 91" fill="currentColor" aria-hidden="true">
	<path d="M6.9,81.1h47.7c1,0,1.8-0.8,1.8-1.8s-0.8-1.8-1.8-1.8H8.7V4.2h46.9v6.1c0,3.2,2.6,5.8,5.8,5.8H68v20.6c0,1,0.8,1.8,1.8,1.8   s1.8-0.8,1.8-1.8V14.2c0-0.4-0.2-0.8-0.4-1.1c0-0.1-0.1-0.1-0.1-0.2L58.7,1c-0.3-0.3-0.8-0.5-1.3-0.5H6.9C5.8,0.5,5,1.3,5,2.3v76.9   C5,80.3,5.8,81.1,6.9,81.1z M59.3,6.6l6,5.8h-3.9c-1.2,0-2.1-1-2.1-2.1C59.3,10.3,59.3,6.6,59.3,6.6z"/><path d="M52,58.9c0,6,3,11.3,7.5,14.5v0.1v14.7c0,0.7,0.4,1.3,0.9,1.6C60.7,90,61,90,61.3,90c0.3,0,0.6-0.1,0.9-0.3l7.6-4.5   l7.6,4.5c0.6,0.3,1.3,0.3,1.8,0c0.6-0.3,0.9-0.9,0.9-1.6V73.5v-0.1c4.5-3.2,7.5-8.5,7.5-14.5c0-9.9-8-17.9-17.9-17.9   C60,41,52,49,52,58.9z M76.6,85l-5.8-3.4c-0.6-0.3-1.3-0.3-1.9,0L63.2,85v-9.6c2.1,0.8,4.3,1.3,6.7,1.3s4.6-0.5,6.7-1.3V85z    M84.1,58.9c0,7.8-6.4,14.2-14.2,14.2s-14.2-6.4-14.2-14.2s6.4-14.2,14.2-14.2C77.7,44.7,84.1,51,84.1,58.9z"/><path d="M69.9,48.3c-1.3,0-2.4,0.8-2.8,2L66,53.7h-3.6c-1.3,0-2.4,0.8-2.8,2c-0.4,1.2,0,2.5,1.1,3.3l2.9,2.1l-1.1,3.4   c-0.4,1.2,0,2.5,1.1,3.3c1,0.7,2.4,0.7,3.4,0l2.9-2.1l2.9,2.1c0.5,0.4,1.1,0.6,1.7,0.6s1.2-0.2,1.7-0.6c1-0.7,1.5-2.1,1.1-3.3   l-1.1-3.4l2.9-2.1c1-0.7,1.5-2.1,1.1-3.3s-1.5-2-2.8-2h-3.6l-1.1-3.4l0,0C72.3,49.1,71.1,48.3,69.9,48.3L69.9,48.3z M73.2,57.4H75   l-1.5,1.1c-1,0.8-1.4,2.1-1.1,3.3l0.6,1.7l-1.5-1.1c-1-0.7-2.4-0.7-3.4,0l-1.5,1.1l0.6-1.7c0.4-1.2,0-2.5-1.1-3.3l-1.5-1.1h1.8   c1.3,0,2.4-0.8,2.8-2l0.6-1.7l0.6,1.7C70.8,56.5,71.9,57.4,73.2,57.4z"/><path d="M25.8,14.4c-0.8-0.6-2-0.4-2.6,0.4l-3.6,5.1l-1.1-1c-0.7-0.7-1.9-0.7-2.6,0.1c-0.7,0.7-0.7,1.9,0.1,2.6l2.6,2.5   c0.3,0.3,0.8,0.5,1.3,0.5c0.1,0,0.1,0,0.2,0c0.5-0.1,1-0.3,1.3-0.8l4.8-6.8C26.8,16.1,26.6,15,25.8,14.4z"/><path d="M30.2,24.5h23.7c1,0,1.8-0.8,1.8-1.8s-0.8-1.8-1.8-1.8H30.2c-1,0-1.8,0.8-1.8,1.8S29.2,24.5,30.2,24.5z"/><path d="M25.8,27.1c-0.8-0.6-2-0.4-2.6,0.4l-3.6,5.1l-1.1-1c-0.7-0.7-1.9-0.7-2.6,0.1c-0.7,0.7-0.7,1.9,0.1,2.6l2.6,2.5   c0.3,0.3,0.8,0.5,1.3,0.5c0.1,0,0.1,0,0.2,0c0.5-0.1,1-0.3,1.3-0.8l4.8-6.8C26.8,28.9,26.6,27.7,25.8,27.1z"/><path d="M30.2,37.2h23.7c1,0,1.8-0.8,1.8-1.8s-0.8-1.8-1.8-1.8H30.2c-1,0-1.8,0.8-1.8,1.8C28.4,36.4,29.2,37.2,30.2,37.2z"/><path d="M25.8,39.9c-0.8-0.6-2-0.4-2.6,0.4l-3.6,5.1l-1.1-1c-0.7-0.7-1.9-0.7-2.6,0.1c-0.7,0.7-0.7,1.9,0.1,2.6l2.6,2.5   c0.3,0.3,0.8,0.5,1.3,0.5c0.1,0,0.1,0,0.2,0c0.5-0.1,1-0.3,1.3-0.8l4.8-6.8C26.8,41.6,26.6,40.4,25.8,39.9z"/><path d="M52.3,48.1c0-1-0.8-1.8-1.8-1.8H30.2c-1,0-1.8,0.8-1.8,1.8s0.8,1.8,1.8,1.8h20.3C51.5,50,52.3,49.1,52.3,48.1z"/><path d="M23.2,53l-3.6,5.1l-1.1-1c-0.7-0.7-1.9-0.7-2.6,0.1c-0.7,0.7-0.7,1.9,0.1,2.6l2.6,2.5c0.3,0.3,0.8,0.5,1.3,0.5   c0.1,0,0.1,0,0.2,0c0.5-0.1,1-0.3,1.3-0.8l4.8-6.8c0.6-0.8,0.4-2-0.4-2.6C24.9,52,23.8,52.2,23.2,53z"/><path d="M30.2,59c-1,0-1.8,0.8-1.8,1.8s0.8,1.8,1.8,1.8h17c1,0,1.8-0.8,1.8-1.8S48.2,59,47.2,59H30.2z"/>
</svg>