<svg width="60px" height="60px" fill="currentColor" viewBox="0 0 91 91" aria-hidden="true" transform="scale(-1 1)">
	<path d="M60.29 20.44h2.34a5.9 5.9 0 0 0 5.89-5.88V5.94A5.9 5.9 0 0 0 62.63.06h-22.8a5.9 5.9 0 0 0-5.9 5.88v8.62a5.9 5.9 0 0 0 5.9 5.88h10.85l5.36 4.88a1.67 1.67 0 0 0 2.37-.11c.63-.69.58-1.75-.11-2.38l-5.84-5.31c-.3-.29-.71-.44-1.13-.44h-11.5a2.53 2.53 0 0 1-2.53-2.53v-8.6c0-1.4 1.13-2.53 2.52-2.53h22.81c1.4 0 2.52 1.13 2.52 2.52v8.62c0 1.39-1.13 2.52-2.52 2.52H60.3a1.68 1.68 0 1 0 0 3.36z"/><path d="M61.32 10.44c0-.93-.75-1.68-1.68-1.68h-1.68a1.68 1.68 0 1 0 0 3.36h1.68c.93 0 1.68-.75 1.68-1.68zM50.2 8.76a1.68 1.68 0 1 0 0 3.36h2.6a1.68 1.68 0 1 0 0-3.37h-2.6zM43.36 8.76a1.68 1.68 0 1 0 0 3.36h1.68a1.68 1.68 0 1 0 0-3.37h-1.68z"/><circle cx="68.61" cy="37.69" r="1.89"/><circle cx="25.01" cy="37.69" r="1.89"/><path d="m4.85 74.53-3.25 13a1.68 1.68 0 1 0 3.26.82l3.09-12.36c.21.05.4.12.64.16.08.02 13.13.02 13.13.02l.01 10.76c.13 1.37 1.34 3.96 4.95 3.96a5.08 5.08 0 0 0 5.08-3.73c.03-.13.05-12.52.05-12.52a8.81 8.81 0 0 0-1.97-6.87H59.2a9.27 9.27 0 0 0-2.18 6.83v12.17c0 .13.01.27.05.4a5.08 5.08 0 0 0 5.08 3.72c3.6 0 4.81-2.59 4.96-4.12v-10.6l12.12-.03 3.05 12.2a1.68 1.68 0 1 0 3.26-.8L82.7 76.16s1.32 0 1.42-.03c4.01-.8 5.2-4.64 5.26-6.49l1.47-19.4a1.68 1.68 0 1 0-3.36-.25l-1.46 19.47c0 .02-.14 2.47-2.09 3.21.59-1.43.62-2.8.62-3l.02-13.12c0-.1-.01-.22-.03-.32-.04-.2-.85-4.21-3.52-7.02a13.54 13.54 0 0 0 5.62-10.95c0-7.46-6.07-13.54-13.54-13.54a13.56 13.56 0 0 0-5.23 26.03L66.4 57.7h-9.62c-.37 0-.73.12-1.02.35a6.21 6.21 0 0 0-2.07 6.37H37.27c.14-.5.23-1.06.23-1.68 0-2.8-1.6-4.37-2.54-4.86-.24-.12-.5-.18-.77-.18H26.3L25.13 51A13.54 13.54 0 1 0 6.97 38.27c0 3.83 1.63 7.38 4.33 9.9-2.8 3.05-3.2 8.04-3.23 8.39l.02 13.11c0 .22.04 1.61.64 3.07a4.24 4.24 0 0 1-3.34-3.37l-1.84-19.4a1.66 1.66 0 0 0-1.83-1.52c-.93.09-1.6.9-1.52 1.83l1.85 19.44a7.68 7.68 0 0 0 2.8 4.8zm52.63-13.48h10.28c.79 0 1.47-.56 1.64-1.33l1.87-8.78c.22-.2.4-.45.47-.76.24-.9-.3-1.82-1.2-2.05-1.8-.47-3.35-1.4-4.6-2.65a6.75 6.75 0 0 0 3.44-1.29 1.68 1.68 0 1 0-1.96-2.73 3.42 3.42 0 0 1-3.93.15c-.26-.74-.4-1.52-.48-2.31.56-.33.96-.91.96-1.61 0-.64-.34-1.18-.83-1.52a10.2 10.2 0 1 1 14.1 11.4 1.68 1.68 0 0 0-.85 2.23c.24.55.75.87 1.3.95 2.4 1.7 3.35 5.24 3.53 5.98l-.02 12.95c0 .36-.15 1.84-.91 2.6-.23.23-.62.53-1.46.53h-13.4c-.94 0-1.69.75-1.69 1.68l.01 12.12c0 .09-.13.91-1.6.91-1.2 0-1.63-.67-1.77-1.01l-.01-12.22c-.06-.52-.4-5.07 5.21-6.52h7.28c.66 0 1.25-.39 1.53-.98l3.16-6.9a1.68 1.68 0 0 0-3.06-1.4l-2.7 5.92H57.34a2.72 2.72 0 0 1 .12-3.36zM10.33 38.27a10.2 10.2 0 0 1 20.14-2.1c-.48.34-.82.88-.82 1.52 0 .7.4 1.28.96 1.61-.08.8-.22 1.57-.48 2.31a3.43 3.43 0 0 1-3.93-.14 1.68 1.68 0 1 0-1.96 2.73 6.76 6.76 0 0 0 3.44 1.28 10.08 10.08 0 0 1-4.53 2.63c-.08 0-.16-.02-.25 0a1.68 1.68 0 0 0-1.36 1.94l1.7 9.61c.14.8.84 1.39 1.65 1.39h8.72c.22.26.53.77.53 1.68 0 .88-.32 1.4-.55 1.68H20.86l-2.7-5.92a1.68 1.68 0 1 0-3.06 1.4l3.16 6.9c.27.6.87.98 1.52.98h3.67c5.66 1.47 5.1 5.92 5.02 6.42-.02.1-.03 12.31-.03 12.31-.15.37-.59 1.02-1.76 1.02-1.2 0-1.52-.52-1.6-.89V74.5c0-.93-.75-1.68-1.68-1.68h-9.58c-2.23 0-2.37-2.61-2.37-3.14l-.02-13c.1-1.31.77-4.83 2.67-6.5.3.15.6.34.91.48a1.68 1.68 0 1 0 1.37-3.07 10.19 10.19 0 0 1-6.05-9.3z"/>
</svg>