<svg class="icon" xmlns="http://www.w3.org/2000/svg" viewBox="0 0 32 40" x="0px" y="0px" fill="currentColor">
	<g>
		<path d="M23.42,28.91a1.45,1.45,0,0,1-.7-.17L16,25.21,9.28,28.74a1.53,1.53,0,0,1-1.58-.11,1.5,1.5,0,0,1-.59-1.47l1.28-7.48L3,14.38a1.5,1.5,0,0,1,.83-2.56l7.52-1.09,3.36-6.81a1.5,1.5,0,0,1,2.68,0l3.36,6.81,7.52,1.09a1.5,1.5,0,0,1,.83,2.56l-5.44,5.3,1.28,7.48a1.5,1.5,0,0,1-.59,1.47A1.49,1.49,0,0,1,23.42,28.91ZM16,22a1.46,1.46,0,0,1,.7.18l4.72,2.48-.9-5.26A1.52,1.52,0,0,1,21,18.08l3.83-3.73-5.29-.76a1.52,1.52,0,0,1-1.13-.83L16,8l-2.36,4.78a1.52,1.52,0,0,1-1.13.83l-5.29.76,3.83,3.73a1.52,1.52,0,0,1,.43,1.33l-.9,5.26,4.72-2.48A1.46,1.46,0,0,1,16,22Z"/>
	</g>
</svg>