<svg width="60px" height="60px" viewBox="0 0 91 91" fill="currentColor" aria-hidden="true">
	<path d="M12.006,90.268c5.529,0,10.156-3.908,11.285-9.104c1.128,5.196,5.759,9.104,11.29,9.104c5.529,0,10.156-3.906,11.286-9.104   c1.127,5.198,5.756,9.104,11.286,9.104c5.168,0,9.551-3.409,11.027-8.097c1.473,4.688,5.855,8.097,11.021,8.097   c6.371,0,11.555-5.184,11.555-11.556c0-6.009-4.615-10.956-10.482-11.5c-0.803-5.594-5.613-9.911-11.426-9.911   c-5.527,0-10.16,3.908-11.285,9.11c-1.125-5.202-5.756-9.11-11.287-9.11c-5.53,0-10.161,3.908-11.288,9.11   c-1.126-5.202-5.757-9.11-11.287-9.11c-5.799,0-10.598,4.297-11.418,9.869c-0.094-0.002-0.183-0.013-0.277-0.013   c-6.373,0-11.558,5.182-11.558,11.555C0.448,85.084,5.633,90.268,12.006,90.268z M79.201,70.561c4.494,0,8.15,3.655,8.15,8.151   s-3.656,8.153-8.15,8.153s-8.148-3.657-8.148-8.153S74.707,70.561,79.201,70.561z M68.848,60.704c3.996,0,7.314,2.895,8.004,6.694   c-4.109,0.852-7.43,3.897-8.672,7.854c-1.109-3.525-3.871-6.32-7.367-7.492C61.352,63.786,64.732,60.704,68.848,60.704z    M57.152,70.561c4.496,0,8.154,3.655,8.154,8.151s-3.658,8.153-8.154,8.153c-4.494,0-8.15-3.657-8.15-8.153   S52.658,70.561,57.152,70.561z M46.275,60.704c4.039,0,7.379,2.965,8.016,6.827c-4.209,1.079-7.5,4.461-8.424,8.729   c-0.869-3.996-3.806-7.22-7.629-8.502C38.777,63.786,42.158,60.704,46.275,60.704z M34.581,70.561c4.494,0,8.149,3.655,8.149,8.151   s-3.655,8.153-8.149,8.153c-4.496,0-8.153-3.657-8.153-8.153S30.084,70.561,34.581,70.561z M23.701,60.704   c4.04,0,7.376,2.965,8.014,6.827c-4.207,1.081-7.499,4.463-8.425,8.729c-0.869-3.996-3.805-7.22-7.63-8.502   C16.203,63.786,19.582,60.704,23.701,60.704z M12.006,70.561c4.492,0,8.147,3.655,8.147,8.151s-3.655,8.153-8.147,8.153   c-4.496,0-8.155-3.657-8.155-8.153S7.51,70.561,12.006,70.561z"/><path d="M35.339,52.757c0,0.938,0.763,1.701,1.702,1.701h43.715c0.941,0,1.703-0.763,1.703-1.701V2.202   c0-0.939-0.762-1.702-1.703-1.702H22.345c-0.941,0-1.702,0.763-1.702,1.702v9.707c-0.725-0.125-1.465-0.202-2.225-0.202   c-7.374,0-13.374,6-13.374,13.375c0,3.844,1.641,7.376,4.328,9.849c-2.4,1.789-4.416,4.425-5.492,6.588   c-0.208,0.418-5.055,10.297-1.886,16.868c0.426,0.887,1.205,1.498,2.186,1.72c0.274,0.063,0.564,0.094,0.864,0.094   c1.186-0.002,2.511-0.482,3.573-1.331c1.097-0.878,1.54-2.691,2.288-6.089c0.416-1.885,0.887-4.021,1.461-5.233   c0.399-0.851,0.035-1.866-0.814-2.267c-0.848-0.403-1.864-0.036-2.265,0.813c-0.736,1.563-1.228,3.796-1.706,5.954   C7.25,53.549,6.75,55.821,6.49,56.21C6,56.917,5.625,57.042,5.008,56.798c-1.733-3.79,0.187-10.286,1.92-13.763   c1.205-2.424,3.467-4.897,5.477-6.04c0.835,0.424,1.706,0.793,2.643,1.035c0.144,0.04,0.285,0.056,0.428,0.056   c0.757,0,1.446-0.509,1.646-1.276c0.237-0.908-0.31-1.839-1.22-2.073c-4.388-1.141-7.453-5.109-7.453-9.655   c0-5.498,4.474-9.971,9.969-9.971c5.5,0,9.973,4.473,9.973,9.971c0,3.939-2.325,7.517-5.922,9.115   c-0.739,0.326-1.095,1.117-0.947,1.88c-0.019,0.102-0.063,0.198-0.063,0.308c0,0.939,0.763,1.702,1.702,1.702h9.067   c1.552,0,4.463-0.837,5.543-3.977c0.79-2.29,1.381-3.804,1.654-4.471c0.351-0.237,1.039-0.609,1.697-0.414   c0.528,0.153,0.788,0.611,0.91,0.929l-3.374,9.063c-0.096,0.202-0.995,1.959-3.476,1.959l-9.237,0.034   c-0.939,0.004-1.696,0.764-1.696,1.701v8.463c0,0.94,0.761,1.701,1.702,1.701c0.941,0,1.701-0.761,1.701-1.701v-6.768l7.536-0.026   c4.792,0,6.509-3.819,6.615-4.066l3.605-9.669c0.096-0.262,0.127-0.542,0.091-0.819c-0.158-1.187-1.056-3.376-3.419-4.068   c-2.257-0.659-4.352,0.557-5.226,1.379c-0.17,0.162-0.305,0.355-0.396,0.569c-0.031,0.07-0.771,1.797-1.904,5.097   c-0.548,1.587-2.165,1.674-2.327,1.679h-4.54c2.562-2.477,4.107-5.909,4.107-9.599c0-5.433-3.264-10.112-7.929-12.203   c0.108-0.222,0.179-0.465,0.179-0.729V3.906h55.008v47.147H37.041C36.102,51.053,35.339,51.815,35.339,52.757z"/><path d="M55.275,40.54c-0.566,0.291-0.918,0.873-0.918,1.508c0,0.635,0.352,1.217,0.918,1.508l9.084,4.732   c0.246,0.128,0.516,0.192,0.785,0.192s0.541-0.064,0.787-0.192l9.08-4.732c0.566-0.291,0.918-0.873,0.918-1.508   c0-0.636-0.352-1.218-0.918-1.508l-8.164-4.257v-1.914c2.561-0.744,4.451-3.088,4.451-5.885c0-2.796-1.891-5.14-4.451-5.884v-3.44   h5.529c0.939,0,1.701-0.761,1.701-1.702v-7.211c0-0.939-0.762-1.702-1.701-1.702H57.91c-0.939,0-1.701,0.763-1.701,1.702v7.211   c0,0.941,0.762,1.702,1.701,1.702h5.533v3.44c-2.561,0.744-4.451,3.087-4.451,5.884c0,2.797,1.891,5.141,4.451,5.885v1.914   L55.275,40.54z M59.613,15.757v-3.806h11.063v3.806H59.613z M62.396,28.484c0-1.516,1.232-2.749,2.748-2.749s2.75,1.232,2.75,2.749   c0,1.517-1.234,2.75-2.75,2.75S62.396,30.001,62.396,28.484z M65.145,39.235l5.398,2.813l-5.398,2.811l-5.398-2.811L65.145,39.235z   "/><path d="M42.387,11.697h6.473c0.939,0,1.703-0.761,1.703-1.702c0-0.941-0.764-1.701-1.703-1.701h-6.473   c-0.941,0-1.702,0.76-1.702,1.701C40.685,10.936,41.445,11.697,42.387,11.697z"/><path d="M39.262,17.315c0,0.941,0.762,1.702,1.702,1.702h9.316c0.939,0,1.701-0.76,1.701-1.702s-0.762-1.702-1.701-1.702h-9.316   C40.024,15.613,39.262,16.374,39.262,17.315z"/><path d="M42.933,25.503h5.381c0.941,0,1.701-0.762,1.701-1.701c0-0.941-0.76-1.704-1.701-1.704h-5.381   c-0.941,0-1.704,0.762-1.704,1.704C41.229,24.741,41.992,25.503,42.933,25.503z"/><path d="M13.644,47.163c-0.235,0.597-0.115,1.273,0.312,1.754l3.198,3.589c0.324,0.361,0.785,0.568,1.271,0.568l0,0   c0.487,0,0.95-0.207,1.272-0.57l3.187-3.589c0.418-0.472,0.542-1.133,0.322-1.723l-3.098-8.365   c-0.246-0.663-0.873-1.105-1.579-1.111c-0.746,0.068-1.342,0.423-1.6,1.081L13.644,47.163z M18.466,44.194l1.192,3.225   l-1.236,1.392l-1.228-1.377L18.466,44.194z"/><path d="M20.419,30.055c1.234,0,2.599-0.345,3.948-1.313c0.762-0.549,0.939-1.61,0.39-2.375c-0.548-0.762-1.61-0.943-2.376-0.39   c-1.999,1.434-3.778,0.185-3.981,0.035c-0.74-0.571-1.799-0.438-2.377,0.295c-0.58,0.737-0.453,1.807,0.287,2.389   C17.103,29.322,18.624,30.055,20.419,30.055z"/><path d="M19.064,22.306c0-1.053-0.856-1.909-1.911-1.909c-1.049,0-1.905,0.856-1.905,1.909c0,1.049,0.856,1.903,1.905,1.903   C18.208,24.209,19.064,23.355,19.064,22.306z"/><path d="M25.484,22.306c0-1.053-0.856-1.909-1.908-1.909c-1.049,0-1.905,0.856-1.905,1.909c0,1.049,0.856,1.903,1.905,1.903   C24.628,24.209,25.484,23.355,25.484,22.306z"/>
</svg>