<svg width="60px" height="60px" viewBox="0 0 100 100" fill="currentColor" aria-hidden="true">
	<rect x="17.494" y="15.393" width="15.511" height="3.112"/><rect x="17.494" y="36.454" width="33.595" height="3.112"/><rect x="17.494" y="42.694" width="29.656" height="3.112"/><rect x="17.494" y="53.79" width="19.309" height="3.11"/><rect x="17.494" y="59.799" width="13.612" height="3.111"/><rect x="17.494" y="65.809" width="5.16" height="3.112"/><rect x="56.144" y="36.454" width="6.909" height="3.112"/><rect x="56.144" y="42.694" width="6.909" height="3.112"/><rect x="56.144" y="54.252" width="6.909" height="3.111"/><g><path d="M80.372,66.233V10.359H64.498l-5.12-4.967H7.981v76.613h6.342v5.78h47.123c-0.688-0.948-1.251-1.993-1.658-3.111H17.436   v-2.669h41.702c-0.072-0.55-0.114-1.111-0.114-1.684c0-0.482,0.03-0.958,0.082-1.427H11.093V8.503h47.023l12.801,12.421v46.708   c0.272-0.018,0.547-0.028,0.825-0.028c3.331,0,6.361,1.282,8.63,3.38v-1.594c4.988,0.975,8.796,5.486,8.833,10.891   c0.021,2.989-1.095,5.806-3.138,7.928c-2.034,2.113-4.747,3.288-7.637,3.308l-0.66,0.004c-1.141,0.616-2.388,1.059-3.704,1.302   l0.002,0.278c0.005,0.856,0.701,1.546,1.555,1.546c0.004,0,0.008,0,0.011,0l2.817-0.019c3.736-0.025,7.237-1.538,9.857-4.261   c2.61-2.711,4.034-6.301,4.008-10.106C92.269,73.144,87.073,67.235,80.372,66.233z M77.26,66.09l-1.816,0.012   c-0.413,0.003-0.809,0.168-1.099,0.462c-0.135,0.138-0.239,0.298-0.315,0.47V19.608l-6.324-6.137h9.555V66.09z"/><g><g><path d="M71.742,94.596c-7.872,0-14.275-6.403-14.275-14.274c0-7.87,6.403-14.273,14.275-14.273     c7.87,0,14.272,6.403,14.272,14.273C86.015,88.192,79.612,94.596,71.742,94.596z M71.742,69.159     c-6.156,0-11.163,5.008-11.163,11.162c0,6.155,5.007,11.161,11.163,11.161c6.153,0,11.161-5.006,11.161-11.161     C82.903,74.167,77.896,69.159,71.742,69.159z"/></g><path d="M72.103,87.247c-0.171,0-0.33-0.01-0.476-0.025c-1.359-0.02-2.547-0.526-3.442-1.468c-1.98-2.084-1.921-5.639-1.893-6.278    c-0.006-0.533,0.062-3.146,1.787-4.904c0.983-1.003,2.327-1.529,3.893-1.514c2.12,0.019,3.858,1.061,5.025,3.012l-2.672,1.597    c-0.604-1.012-1.361-1.487-2.381-1.496c-0.723-0.012-1.255,0.184-1.645,0.581c-0.904,0.922-0.896,2.689-0.896,2.707    c0.001,0.043,0.001,0.086-0.002,0.129c-0.036,0.721,0.077,3.018,1.043,4.026c0.331,0.347,0.732,0.508,1.278,0.497    c0.094-0.001,0.136-0.001,0.225,0.016c0.208,0.019,1.486,0.072,2.318-1.381l2.702,1.544    C75.628,86.632,73.497,87.247,72.103,87.247z"/><rect x="64.157" y="78.532" width="8.637" height="3.111"/></g></g><polygon points="68.591,24.716 55.069,24.716 55.069,7.646 58.182,7.646 58.182,21.604 68.591,21.604 "/>
</svg>
