<svg width="60px" height="60px" fill="currentColor" viewBox="0 0 91 91" aria-hidden="true">
	<path d="M50.64 33.42a1.68 1.68 0 1 0-1.96-2.73 2.74 2.74 0 0 1-3.29.03 1.68 1.68 0 0 0-2.06 2.65 6.3 6.3 0 0 0 3.73 1.24c1.12 0 2.36-.31 3.58-1.19zM44.18 29.46a1.86 1.86 0 0 0 0-3.72 1.86 1.86 0 0 0 0 3.72z"/><circle cx="49.84" cy="27.6" r="1.86"/><path d="M48.7 12.78v-6.9a1.68 1.68 0 1 0-3.37 0v6.9a1.68 1.68 0 1 0 3.36 0zM56.62 16.58c.47 0 .94-.2 1.27-.57l3.8-4.39a1.68 1.68 0 1 0-2.53-2.2l-3.8 4.38a1.68 1.68 0 0 0 1.26 2.78zM33.55 11.63 37.37 16a1.68 1.68 0 0 0 2.37.16c.7-.6.78-1.67.17-2.37l-3.81-4.38a1.68 1.68 0 0 0-2.54 2.2zM68.64 31.18a1.9 1.9 0 1 0 0 3.78 1.9 1.9 0 0 0 0-3.78z"/><circle cx="25.06" cy="33.07" r="1.89"/><path d="M89.33 43.81a1.69 1.69 0 0 0-1.8 1.55l-1.47 19.46c0 .03-.14 2.48-2.09 3.22.6-1.43.63-2.8.62-3 0 0 .01-13.33-.01-13.44-.04-.2-.85-4.21-3.52-7.02a13.53 13.53 0 0 0 5.6-10.93c0-7.47-6.06-13.54-13.53-13.54a13.55 13.55 0 0 0-5.21 26.02l-1.48 6.92h-4.72c-.52-5.66-.86-7.02-2.15-9.6-.99-1.99-2.48-3.72-4.29-5.02a11.94 11.94 0 0 0-8.27-20.57 11.94 11.94 0 0 0-8.32 20.54c-2.08 1.35-4.21 3.22-5.25 5.31-1.3 2.6-1.64 4.29-2.34 9.34h-4.73l-1.18-6.68a13.53 13.53 0 1 0-13.82-2.82c-2.8 3.05-3.2 8.02-3.22 8.37l.01 13.11c0 .22.04 1.61.65 3.07a4.24 4.24 0 0 1-3.34-3.38L3.62 45.33a1.65 1.65 0 0 0-1.83-1.51c-.92.09-1.6.9-1.5 1.83l1.84 19.43a7.66 7.66 0 0 0 2.8 4.8l-3.25 13a1.68 1.68 0 1 0 3.26.82l3.09-12.35c.21.05.4.12.63.16l13.13.02V82.3c.14 1.36 1.35 3.94 4.95 3.94a5.08 5.08 0 0 0 5.08-3.72c.03-.13.05-.26.05-.39V70a8.8 8.8 0 0 0-1.96-6.86H59.25a9.27 9.27 0 0 0-2.18 6.82v12.17c0 .13.01.27.05.4a5.08 5.08 0 0 0 5.08 3.72c3.6 0 4.8-2.59 4.95-4.12V71.53l12.12-.04 3.05 12.2a1.68 1.68 0 1 0 3.26-.8l-2.84-11.36s1.3-.01 1.42-.03c4-.8 5.19-4.64 5.25-6.49l1.46-19.4a1.68 1.68 0 0 0-1.54-1.8zm-57.1 15.96h-11.3l-2.7-5.92a1.68 1.68 0 1 0-3.06 1.4l3.16 6.9c.27.6.87.98 1.53.98h3.66c5.66 1.47 5.1 5.92 5.02 6.42-.02.1-.03 12.3-.03 12.3-.15.37-.6 1.02-1.77 1.02-1.18 0-1.51-.53-1.6-.89V69.85c0-.93-.74-1.68-1.67-1.68h-9.58c-2.23 0-2.36-2.61-2.37-3.13l-.02-13c.1-1.31.77-4.82 2.66-6.5.3.16.59.34.9.48a1.68 1.68 0 0 0 1.37-3.07 10.19 10.19 0 0 1 4.13-19.48c4.9 0 8.99 3.47 9.96 8.08-.49.34-.83.88-.83 1.51 0 .7.4 1.29.96 1.61-.08.8-.22 1.57-.47 2.31a3.42 3.42 0 0 1-3.94-.15 1.68 1.68 0 1 0-1.95 2.73 6.75 6.75 0 0 0 3.44 1.29 10.11 10.11 0 0 1-4.53 2.62c-.08 0-.15-.02-.23 0a1.68 1.68 0 0 0-1.36 1.94l1.7 9.6c.13.81.83 1.4 1.65 1.4h7.29c.4.18 1.3.7 1.3 1.68 0 .9-.9 1.47-1.32 1.68zm23.8-5.34.06-3.52c.01-.92-.73-1.69-1.65-1.7h-.03c-.92 0-1.67.73-1.68 1.65l-.15 8.9H41.61v-9.95a1.68 1.68 0 1 0-3.36 0v9.96h-1.66c.19-.5.32-1.06.32-1.68a5.05 5.05 0 0 0-2.52-4.33c.72-5.18 1-6.44 2.05-8.55.88-1.77 3.21-3.58 5.26-4.69.73.36 1.48.68 2.3.88a1.68 1.68 0 0 0 .84-3.25 8.6 8.6 0 1 1 5.66-.46 1.68 1.68 0 1 0 1.37 3.07c.15-.06.29-.16.44-.23a10.45 10.45 0 0 1 4.25 4.42c1 2 1.3 2.98 1.79 8.13-.15.01-.3.03-.45.08-.54.21-1.25.64-1.87 1.27zm25.2 10.61c0 .36-.14 1.84-.9 2.6-.23.23-.63.53-1.47.53h-13.4c-.92 0-1.67.75-1.67 1.68v12.1c0 .1-.12.92-1.6.92-1.18 0-1.62-.67-1.76-1.01V69.85c0-.06 0-.14-.02-.2-.05-.52-.4-5.07 5.22-6.52h7.27c.66 0 1.25-.38 1.53-.98l3.16-6.9a1.68 1.68 0 1 0-3.06-1.4l-2.7 5.92H59.03a2.8 2.8 0 0 1-1.03-2.1c0-.65.56-1.07.89-1.26h8.9c.8 0 1.48-.55 1.64-1.33l1.88-8.79c.2-.2.37-.45.45-.74.23-.9-.3-1.82-1.2-2.05a10.1 10.1 0 0 1-4.6-2.65 6.75 6.75 0 0 0 3.44-1.28 1.68 1.68 0 1 0-1.96-2.73 3.41 3.41 0 0 1-3.93.14 10.2 10.2 0 0 1-.48-2.3c.56-.33.96-.92.96-1.61 0-.64-.34-1.18-.82-1.52a10.19 10.19 0 1 1 14.09 11.4 1.68 1.68 0 0 0-.86 2.22c.25.56.77.88 1.33.96 2.39 1.68 3.34 5.23 3.51 5.97l-.01 12.94z"/>
</svg>