<svg width="60px" height="60px" viewBox="0 0 91 91" fill="currentColor" aria-hidden="true">
	<path d="M57.043,28.712c-2.106,1.514-3.982,0.201-4.202,0.035c-0.728-0.561-1.773-0.433-2.343,0.291   c-0.572,0.729-0.444,1.783,0.282,2.354c0.812,0.637,2.36,1.383,4.189,1.383c1.259,0,2.652-0.353,4.028-1.339   c0.75-0.538,0.923-1.586,0.384-2.338C58.844,28.346,57.798,28.168,57.043,28.712z"/><path d="M51.603,26.74c1.043,0,1.891-0.846,1.891-1.886s-0.848-1.888-1.891-1.888c-1.04,0-1.888,0.848-1.888,1.888   S50.563,26.74,51.603,26.74z"/><path d="M58.236,22.966c-1.043,0-1.893,0.848-1.893,1.888s0.85,1.886,1.893,1.886c1.038,0,1.882-0.846,1.882-1.886   S59.274,22.966,58.236,22.966z"/><path d="M83.384,12.079h-8.091c-0.588,0-1.136,0.31-1.438,0.814c-0.302,0.507-0.317,1.134-0.039,1.655l3.845,7.172v3.007   c-1.513,0.563-2.868,1.952-3.307,5.027c-0.121,0.857-0.254,1.785-0.38,2.469c-0.791-0.427-1.703-0.887-2.654-1.037   c0.871-1.816,1.358-3.831,1.358-5.925c0-7.57-6.157-13.728-13.726-13.728c-7.57,0-13.729,6.157-13.729,13.728   c0,4.992,2.696,9.476,6.858,11.884c-1.171,0.771-2.336,1.777-2.905,2.999c-0.584-0.713-1.278-1.274-2.046-1.641   c-1.228-0.588-2.582-0.635-3.809-0.13c-1.206,0.497-2.161,1.493-2.689,2.798c-0.826,2.044-0.588,4.761,0.667,7.644   c1.796,4.119,3.47,5.433,4.177,5.826c0.528,0.362,2.404,1.485,4.595,1.181c-1.868,1.174-3.544,2.989-4.526,5.753   c-2.638,7.426-2.987,9.08-3.028,9.292c-0.332,2.067,0.358,5.351,3.617,5.924c0.392,0.068,0.766,0.1,1.124,0.1   c2.453,0,4.094-1.263,4.777-2.436c0.049-0.086,1.691-3.813,2.14-5.924c0.546-2.539,1.666-3.606,3.81-3.608   c0.131,1.778,0.227,3.604,0.258,5.465c0.208,11.621,0.351,15.665,0.362,15.836c0.179,1.565,1.609,4.71,5.752,4.72   c4.279,0.01,5.824-2.929,5.885-5.333V68.232c0.067-0.378,0.51-2.22,2.798-3.658c4.337-2.72,5.838-6.874,4.121-11.396   c-0.648-1.715-1.935-4.499-3.176-7.195c-0.583-1.262-1.269-2.748-1.836-4.028c1.549,0.771,4.403,1.456,6.901,0.493   c1.306-0.5,3.017-1.658,3.778-4.318c1.431-5.008,1.865-9.32,1.883-9.503c0.025-0.269-0.014-0.542-0.115-0.793   c-0.423-1.039-1.611-2.732-3.583-3.27v-2.843l3.846-7.172c0.281-0.521,0.266-1.148-0.036-1.655   C84.52,12.389,83.973,12.079,83.384,12.079z M80.582,15.431l-1.245,2.321l-1.241-2.321H80.582z M50.896,67.829   c-0.294,1.387-1.269,3.805-1.709,4.838c-0.192,0.394-0.929,1.39-2.475,0.82c-1.306-0.479-0.912-1.905-0.896-2.022   c0.014-0.064,0.365-1.662,2.89-8.771c1.828-5.152,6.764-5.452,8.457-5.399c0.193,1.364,0.374,2.78,0.528,4.268   C54.978,61.649,51.948,62.928,50.896,67.829z M52.802,54.562c0.572-0.499,1.14-1.174,1.639-2.114c0.572-1.08,1.04-1.988,1.424-2.75   c0.254,1.251,0.524,2.674,0.785,4.232C55.504,53.947,54.165,54.129,52.802,54.562z M81.318,28.784   c-0.152,1.233-0.637,4.659-1.715,8.426c-0.31,1.083-0.883,1.773-1.754,2.108c-1.574,0.6-3.671-0.016-4.392-0.465   c-2.046-1.278-3.539-1.461-3.539-1.461c-0.621-0.109-1.51,0.255-1.89,0.748c-0.828,1.068-0.583,1.668,2.909,9.248   c1.22,2.642,2.479,5.374,3.087,6.979c1.428,3.759-0.716,6.081-2.77,7.369c-3.951,2.486-4.345,6.061-4.368,6.374l0.008,17.346   c-0.033,0.372-0.268,2.21-2.416,2.138c-2.118-0.08-2.487-1.384-2.535-1.621c-0.002-0.039-0.145-4.064-0.35-15.643   c-0.183-10.135-1.981-19.422-3.064-24.171c-0.283-1.253-0.875-2.014-1.762-2.263c-0.861-0.241-2.038,0.096-2.436,1.167   c-0.004,0.014-0.532,1.438-2.854,5.814c-0.489,0.922-1.064,1.466-1.709,1.615c-0.951,0.229-2.11-0.304-2.648-0.775   c-0.014-0.006-1.235-0.768-2.747-4.239c-0.881-2.022-1.111-3.864-0.633-5.051c0.193-0.479,0.483-0.799,0.861-0.957   c0.351-0.142,0.702-0.123,1.082,0.057c0.773,0.37,1.447,1.313,1.8,2.52c0.352,1.191,0.209,1.804,0.107,1.975   c-0.519,0.436-0.727,1.149-0.513,1.807c0.236,0.715,0.879,1.192,1.672,1.149c2.294-0.109,2.627-2.632,2.896-4.657   c0.133-0.996,0.27-2.026,0.55-2.716c0.433-1.069,2.835-2.424,4.324-3.002c0.535-0.21,1.091-0.896,1.042-1.662   c0.004-0.749-0.468-1.436-1.224-1.633c-4.571-1.187-7.763-5.318-7.763-10.045c0-5.721,4.655-10.374,10.378-10.374   c5.721,0,10.374,4.653,10.374,10.374c0,4.098-2.418,7.821-6.159,9.483c-0.846,0.378-1.226,1.368-0.852,2.214   c0.378,0.848,1.367,1.229,2.213,0.852c1.121-0.499,5.107-3.168,6.174-3.33c0.413-0.006,1.377,0.528,1.858,0.793   c0.795,0.431,1.423,0.77,2.118,0.77c2.169,0,2.609-2.172,2.995-5.816C78.117,26.05,81.469,27.806,81.318,28.784z"/><path d="M26.541,8.712c-0.01-0.01-0.023-0.014-0.033-0.023c-1.882-2.003-4.423-3.371-7.278-3.763V1.947   c0-0.925-0.75-1.676-1.676-1.676c-0.928,0-1.676,0.75-1.676,1.676v2.979C12.794,5.349,10.07,6.908,8.152,9.18   C8.135,9.199,8.109,9.209,8.094,9.23c-0.01,0.01-0.01,0.021-0.02,0.033c-1.765,2.132-2.829,4.866-2.829,7.845   c0,6.787,5.52,12.307,12.309,12.307c6.787,0,12.309-5.52,12.309-12.307c0-3.229-1.259-6.161-3.299-8.359   C26.554,8.739,26.55,8.724,26.541,8.712z M17.554,8.151c1.873,0,3.608,0.581,5.046,1.569c-1.527,0.822-3.46,1.294-5.485,1.294   c-1.791,0-3.488-0.38-4.922-1.037C13.692,8.847,15.535,8.151,17.554,8.151z M17.554,26.064c-3.381,0-6.292-1.904-7.818-4.674   c2.372,0.84,4.924,1.307,7.555,1.307c2.884,0,5.657-0.526,8.196-1.52C23.998,24.065,21.019,26.064,17.554,26.064z M17.291,19.345   c-3.116,0-6.097-0.732-8.677-2.079c-0.002-0.054-0.018-0.105-0.018-0.158c0-1.668,0.489-3.213,1.286-4.552   c2.058,1.15,4.589,1.81,7.233,1.81c2.972,0,5.75-0.793,7.901-2.192c0.914,1.377,1.45,3.02,1.479,4.788   C23.801,18.502,20.648,19.345,17.291,19.345z"/><path d="M10.208,37.379h-0.9c-0.927,0-1.675,0.75-1.675,1.676c0,0.927,0.748,1.676,1.675,1.676h0.9   c0.926,0,1.676-0.749,1.676-1.676C11.884,38.129,11.134,37.379,10.208,37.379z"/><path d="M18.308,37.379h-0.9c-0.925,0-1.675,0.75-1.675,1.676c0,0.927,0.75,1.676,1.675,1.676h0.9c0.926,0,1.676-0.749,1.676-1.676   C19.984,38.129,19.234,37.379,18.308,37.379z"/><path d="M13.807,32.882c-0.926,0-1.676,0.749-1.676,1.676v0.9c0,0.925,0.75,1.676,1.676,1.676c0.925,0,1.676-0.75,1.676-1.676v-0.9   C15.483,33.63,14.732,32.882,13.807,32.882z"/><path d="M13.807,40.98c-0.926,0-1.676,0.75-1.676,1.676v0.9c0,0.928,0.75,1.675,1.676,1.675c0.925,0,1.676-0.747,1.676-1.675v-0.9   C15.483,41.73,14.732,40.98,13.807,40.98z"/><path d="M35.34,12.267h-0.9c-0.926,0-1.676,0.75-1.676,1.675c0,0.926,0.75,1.676,1.676,1.676h0.9c0.926,0,1.676-0.75,1.676-1.676   C37.016,13.017,36.266,12.267,35.34,12.267z"/><path d="M43.44,15.618c0.928,0,1.676-0.75,1.676-1.676c0-0.925-0.748-1.675-1.676-1.675h-0.9c-0.926,0-1.676,0.75-1.676,1.675   c0,0.926,0.75,1.676,1.676,1.676H43.44z"/><path d="M38.941,12.021c0.925,0,1.676-0.75,1.676-1.676v-0.9c0-0.927-0.75-1.678-1.676-1.678c-0.926,0-1.676,0.75-1.676,1.678v0.9   C37.266,11.271,38.016,12.021,38.941,12.021z"/><path d="M40.617,17.543c0-0.925-0.75-1.676-1.676-1.676c-0.926,0-1.676,0.75-1.676,1.676v0.9c0,0.925,0.75,1.676,1.676,1.676   c0.925,0,1.676-0.75,1.676-1.676V17.543z"/>
</svg>