<svg width="25px" height="25px" fill="currentColor" viewBox="0 0 308 308">
	<path d="M227.9 176.98c-.6-.29-23.05-11.34-27.04-12.78a15.53 15.53 0 0 0-5.23-1.16c-3.03 0-5.58 1.51-7.56 4.48-2.25 3.34-9.04 11.27-11.13 13.64-.28.32-.65.7-.88.7-.2 0-3.67-1.44-4.72-1.9-24.1-10.46-42.37-35.62-44.88-39.86-.36-.61-.37-.89-.38-.89.1-.32.9-1.14 1.32-1.55a62.27 62.27 0 0 0 3.83-4.35c.6-.73 1.21-1.47 1.81-2.16a24.05 24.05 0 0 0 3.65-5.79l.5-1c2.35-4.66.34-8.6-.3-9.86-.53-1.06-10.02-23.95-11.02-26.35-2.43-5.8-5.63-8.5-10.08-8.5-.41 0 0 0-1.73.07-2.11.09-13.6 1.6-18.68 4.8C90 87.92 80.9 98.74 80.9 117.77c0 17.13 10.87 33.3 15.54 39.45l.63.93c17.88 26.1 40.16 45.44 62.75 54.47 21.74 8.68 32.04 9.69 37.9 9.69 2.45 0 4.42-.2 6.16-.37l1.1-.1c7.51-.67 24.02-9.22 27.78-19.66 2.95-8.22 3.73-17.2 1.77-20.46-1.35-2.21-3.68-3.33-6.62-4.74z"/><path d="M156.73 0C73.32 0 5.45 67.35 5.45 150.14c0 26.78 7.17 53 20.75 75.93l-26 76.65a4 4 0 0 0 5 5.1l79.92-25.4a152.3 152.3 0 0 0 71.6 17.85c83.41 0 151.27-67.35 151.27-150.13C308 67.35 240.14 0 156.73 0zm0 269c-23.53 0-46.33-6.8-65.93-19.66a4 4 0 0 0-3.4-.47L47.35 261.6l12.92-38.13a4 4 0 0 0-.56-3.65 117.23 117.23 0 0 1-22.81-69.68c0-65.54 53.75-118.86 119.82-118.86S276.55 84.6 276.55 150.14c0 65.54-53.75 118.85-119.82 118.85z"/>
</svg>